<?xml version="1.0" encoding="utf-8"?>
<!-- Generator: Adobe Illustrator 27.5.0, SVG Export Plug-In . SVG Version: 6.00 Build 0)  -->
<svg version="1.1" id="Layer_1" xmlns="http://www.w3.org/2000/svg" xmlns:xlink="http://www.w3.org/1999/xlink" x="0px" y="0px"
	 viewBox="0 0 1350 900" style="enable-background:new 0 0 1350 900;" xml:space="preserve">
<rect style="fill:#f0f0f7;" width="1350" height="900"/>
<path style="fill:#D4EBC7;" d="M182.739,803.89h963.525c6.326-10.014,12.501-21.057,18.126-30.933
	c55.768-97.913,104.711-199.538,115.808-311.674c15.296-154.576-48.047-307.023-225.861-342.079
	C794.803,68.037,463.28,232.02,361.98,458.403c-44.29,7.519-93.406-13.978-139.825-11.566
	c-62.086,3.225-127.966,23.114-155.785,78.588c-37.55,74.883,1.135,165.333,55.457,223.987
	C131.244,759.582,156.137,783.175,182.739,803.89z"/>
<ellipse style="fill:#8A929B;" cx="669.786" cy="793.713" rx="536.628" ry="14.479"/>
<path style="fill:#5F6870;" d="M157.268,794.424c0,4.165,229.463,7.541,512.519,7.541c283.056,0,512.518-3.376,512.518-7.541
	c0-4.164-229.462-7.54-512.518-7.54C386.731,786.884,157.268,790.26,157.268,794.424z"/>
<g>
	<g>
		<g>
			<polygon style="fill:#3C4042;" points="646.403,526.263 651.451,766.108 631.489,766.108 637.492,526.263 			"/>
			<g>
				<g>
					<path style="fill:#3C4042;" d="M642.693,744.081c3.671,1.224,97.896,39.159,97.896,39.159v12.237h-97.896V744.081z"/>
					<path style="fill:#3C4042;" d="M641.47,744.081c-3.671,1.224-97.896,39.159-97.896,39.159v12.237h97.896V744.081z"/>
				</g>
				<path style="fill:#828A8E;" d="M642.693,744.081c-1.973,1.224-52.619,39.159-52.619,39.159v12.237h52.619V744.081z"/>
			</g>
		</g>
		<g>
			<path style="fill:#892743;" d="M467.572,581.486c2.047,15.559,8.664,28.481,24.502,34.394h40.805
				c3.136-11.235,5.053-24.001,11.825-34.394c0.368-0.565,0.745-1.13,1.146-1.678c9.941-13.766,26.745-21.537,38.922-32.592
				c17.156-15.568,25.631-35.516,29.71-59.64c6.985-41.297-4.324-85.247,3.063-125.405c0,0,13.806-73.447,4.242-63.096
				c-0.549,0.589-1.098,1.22-1.638,1.892c-0.008,0.008-0.008,0.008-0.016,0.016c-22.831,28.096-41.747,121.188-52.057,139.728
				c-21.43,38.512-88.588,22.323-95.442,75.592C470.094,536.021,464.894,561.038,467.572,581.486z"/>
			<path style="fill:#AA2D4B;" d="M480.634,581.486c0.164,5.732,0.565,10.376,0.565,12.816c0,9.18,4.447,17.205,11.072,21.578
				h280.741c20.8-9.253,38.021-23.584,46.677-46.054c3.546-9.221,5.052-19.269,5.2-29.628c-0.32-22.478-6.6-46.12-11.956-65.757
				c-5.568-20.44-11.227-39.283-16.926-56.586c-40.453-122.728-83.47-168.144-118.191-159.799c-0.156,0.033-0.319,0.123-0.483,0.131
				c-25.632,1.63-43.925,18.54-57.183,42.779c-0.008,0.008-0.008,0.008-0.016,0.016c-34.705,63.448-34.909,177.045-41.952,197.738
				c-8.885,26.082-58.854,14.02-84.748,36.572C481.191,545.962,480.2,567.139,480.634,581.486z"/>
		</g>
	</g>
	<g>
		<g>
			<path style="fill:#798C9E;" d="M484.649,778.061l9.061-0.037c1.931,2.373,3.587,4.734,6.872,14.638
				c-15.728,2.507-34.291,6.115-50.641,5.357C454.92,788.509,477.229,783.781,484.649,778.061z"/>
			<path style="fill:#132635;" d="M411.59,514.288c55.31-25.313,176.567-38.001,176.567-38.001
				c60.142,10.499,51.699,60.86,46.277,86.231c-18.666,0.87-132.918,13.35-151.158,15.467
				c0.79,15.326,11.468,168.575,10.435,200.039c-2.344,0.713-6.712,0.672-9.061,0.037c-18.489-41.049-63.741-177.299-67.901-201.466
				C414.512,563.587,397.72,520.635,411.59,514.288z"/>
		</g>
		<g>
			<path style="fill:#FFB278;" d="M429.121,389.104c3.124,0.951,6.266,1.924,9.435,2.904c24.308,7.52,49.495,15.394,70.753,17.495
				c15.754,1.558,29.523-0.032,43.107-5.327c6.151-2.398,12.795-2.544,12.076-11.424c-0.051-0.678-0.286-1.451-0.669-2.29
				c-3.253-7.226-17.098-19.501-17.098-19.501c-18.736-12.294-43.831-9.231-63.1-4.582c-18.387,4.434-35.438,5.71-53.663,6.746
				L429.121,389.104z"/>
			<g>
				<path style="fill:#FFB278;" d="M402.13,373.74c1.467,0.671,2.736,1.277,3.854,1.877c1.445,0.767,2.65,1.524,3.73,2.393
					c1.699,1.358,3.082,2.967,4.586,5.285c0.099,0.136,0.191,0.278,0.282,0.42c0.674,1.06,1.384,1.977,2.123,2.759
					c6.155,6.541,14.445,4.191,21.807,0.272c1.456-0.765,2.861-1.598,4.215-2.427l-2.066-9.859
					c-7.955-1.831-14.862-5.263-23.267-6.04c-7.541-0.686-21.885-7.213-23.932-6.529c-0.182,0.419-0.309,0.835-0.388,1.25
					C392.162,368.076,398.606,372.143,402.13,373.74z"/>
				<g>
					<path style="fill:#FFB278;" d="M397.691,393.076c0.781-0.324,1.558-0.654,2.337-0.998c-0.661,0.409-1.376,0.811-2.122,1.2
						c0,0,0,0-0.005-0.007c-0.783,0.405-1.602,0.788-2.465,1.16c-9.834,4.253-23.411,6.572-20.693,9.883
						c1.794,4.731,16.058-0.488,29.038-5.089c0.481-0.164,0.957-0.336,1.433-0.508c0.945-0.324,1.874-0.651,2.789-0.966
						c-0.707,0.269-1.646,0.613-2.717,1.018c-0.439,0.157-0.902,0.331-1.381,0.515c-6.828,2.551-17.5,6.683-17.43,8.49
						c3.841,5.306,25.377-4.656,32.862-7.544c8.45-3.263,15.078-7.078,22.865-11.513l-3.691-1.972l-24.916-13.313
						c-1.851,0.266-3.55,0.711-5.166,1.256c-0.835,0.281-1.648,0.593-2.446,0.927c-3.387,1.4-6.596,3.192-10.431,4.801
						c-3.411,1.43-7.113,2.444-10.645,3.258c-9.644,2.22-18.175,2.977-16.924,6.923c1.982,1.845,6.23,1.728,10.796,0.872
						c-6.296,1.946-11.822,4.142-11.114,6.092c1.283,3.83,13.906,1.82,27.382-3.418C395.919,393.804,396.807,393.45,397.691,393.076
						z M392.958,387.492c-0.465,0.141-0.984,0.285-1.54,0.444c0.547-0.187,1.044-0.363,1.498-0.517
						c1.263-0.428,2.105-0.714,2.335-0.732C394.89,386.892,394.082,387.164,392.958,387.492z"/>
				</g>
				<g>
					<path style="fill:#E5804E;" d="M388.772,388.651c0.04,0.039,0.082,0.08,0.121,0.12c1.855,1.972,3.952,3.769,6.154,5.375
						c0.135,0.088,0.265,0.189,0.39,0.284c2.713,1.928,5.568,3.546,8.345,4.795c0.042,0.026,0.086,0.041,0.124,0.06
						c1.419,0.636,2.816,1.161,4.153,1.59c-0.876-0.717-1.816-1.411-2.772-2.106c-0.03-0.012-0.053-0.029-0.072-0.052
						c-2.421-1.734-5.009-3.476-7.308-5.44c0,0,0,0-0.005-0.007c-0.07-0.065-0.14-0.13-0.21-0.195
						c-1.886-1.649-3.559-3.465-4.733-5.583c-0.018-0.022-0.034-0.046-0.042-0.073c-0.619-1.111-1.088-2.319-1.397-3.621
						c5.905,0.274,12.099-3.046,14.651-4.132c2.301,3.833,6.85,5.433,10.535,6.808c2.542,0.957,5.398,1.314,8.522,1.051
						c-1.915-0.461-7.072-1.984-10.928-4.23c-2.516-1.482-4.48-3.27-4.586-5.285c-0.052-0.852,0.239-1.744,0.957-2.667
						c-0.756-0.182-1.505-0.402-2.242-0.653c-5.962-2.015-11.509-6.281-15.355-11.547c-0.912,4.933,5.532,9.001,9.055,10.597
						c1.467,0.671,2.736,1.277,3.854,1.877c-3.387,1.4-6.596,3.192-10.431,4.801c-3.411,1.43-7.113,2.444-10.645,3.258
						C385.999,385.426,387.307,387.089,388.772,388.651z"/>
					<path style="fill:#E5804E;" d="M425.267,387.53c-0.014-0.003-0.027-0.007-0.039-0.01c0.014-0.001,0.026-0.001,0.04-0.002
						C425.428,387.541,425.428,387.545,425.267,387.53z"/>
				</g>
			</g>
			<path style="fill:#E5804E;" d="M438.556,392.008c24.308,7.52,49.495,15.394,70.753,17.495
				c15.754,1.558,29.523-0.032,43.107-5.327c6.151-2.398,12.795-2.544,12.076-11.424c-0.051-0.678-0.286-1.451-0.669-2.29
				l-14.959-10.155c-5.656,19.324-41.108,19.208-56.518,17.859C474.413,396.588,456.53,391.23,438.556,392.008z"/>
		</g>
		<g>
			<g>
				<g>
					<path style="fill:#A971AF;" d="M519.926,363.232c8.357,21.496,41.171,34.804,43.218,35.82
						c2.308,1.151,23.176-33.41,39.784-65.314c13.345-25.642,23.947-49.569,19.97-51.855c-10.74-6.187-35.524-12.691-42.875-3.24
						c-8.291,10.65-35.963,50.794-59.823,84.206C520.109,362.979,520.016,363.101,519.926,363.232z"/>
				</g>
				<path style="fill:#663F6B;" d="M519.926,363.232c8.357,21.496,41.171,34.804,43.218,35.82
					c2.308,1.151,23.176-33.41,39.784-65.314l-3.253-30.142c-0.303,11.636-4.922,25.405-10.794,35.16
					c-7.111,11.819-11.454,22.047-22.54,30.787c-14.633,11.544-35.296,8.31-46.141-6.694
					C520.109,362.979,520.016,363.101,519.926,363.232z"/>
			</g>
			<g>
				<path style="fill:#A971AF;" d="M571.808,354.394c0.193,26.461,14.745,96.94,1.176,138.962c-0.509,1.586-1.064,3.149-1.665,4.643
					c-0.109,0.272-0.137,0.53-0.082,0.785c1.656,8.411,87.355,9.027,111.537,57.809c4.209-6.501,8.604-14.845,11.063-22.697
					c0.085-0.275,0.162-0.551,0.248-0.825c3.085-10.417,6.571-23.371,10.162-37.568c10.475-41.44,21.8-93.471,26.296-123.87
					c0.753-5.069,1.31-9.528,1.641-13.245c2.387-26.588,14.178-68.819,1.325-81.775c-9.886-9.974-43.459-17.161-53.048-19.601
					c-12.649-3.214-37.38-12.119-40.541-19.779l-10.526,18.505c-5.513,6.156-13.472,6.364-22.07,11.321
					c-9.208,5.312-21.687,3.577-27.905,13.337C576.656,299.859,571.655,333.912,571.808,354.394z"/>
				<g>
					<path style="fill:#FFB278;" d="M605.157,271.024c2.593,6.565,13.187,24.989,19.874,27.8
						c14.691-7.303,30.634-24.382,43.348-36.927c-4.118-8.715-1.514-39.27-3.408-46.95c-0.617-2.514-8.027,16.214-9.173,12.414
						c-1.985-6.585-3.97-13.84-3.17-17.305l-46.607,34.443c2.401,6.13-0.873,14.387-1.421,20.952
						C604.428,267.518,604.519,269.412,605.157,271.024z"/>
					<path style="fill:#E5804E;" d="M604.6,265.451c5.715,5.096,12.766,7.874,22.391,5.432
						c17.608-4.466,34.082-19.349,36.758-36.937c-1.986-6.586-11.92-20.425-11.121-23.89l-46.607,34.443
						C608.422,250.629,605.148,258.886,604.6,265.451z"/>
				</g>
				<g>
					<path style="fill:#E0DAD5;" d="M658.884,235.732c0.008,0.078,0.015,0.152,0.021,0.23c-0.282-0.132-0.558-0.25-0.821-0.339
						L658.884,235.732z"/>
				</g>
			</g>
			<path style="fill:#663F6B;" d="M571.237,498.783c1.656,8.411,87.355,9.027,111.537,57.809
				c4.209-6.501,8.604-14.845,11.063-22.697c0.085-0.275,0.162-0.551,0.248-0.825c2.222-8.871,3.883-16.64,4.877-20.148
				c1.636-5.776,3.419-11.58,5.285-17.42c10.475-41.44,21.8-93.471,26.296-123.87l-25.965-34.103
				c-4.947,27.457-35.347,152.799-58.594,171.319c-14.701-6.038-51.422-13.117-67.067-14.709c-2.003-0.201-2.147-5.574-4.093-5.886
				C574.548,489.106,572.842,494.108,571.237,498.783z"/>
			<path style="fill:#A971AF;" d="M751.44,440.297c-9.529-4.928-16.318-8.508-26.834-30.118
				c0.539-26.967-34.577-92.368-35.795-112.065c-0.401-6.47,13.421-27.896,21.609-30.223c15.202-4.319,25.824,11.312,28.874,16.344
				c13.763,22.697,23.814,67.109,30.369,92.853c5.793,22.746,6.18,38.301,8.542,58.8
				C770.184,443.788,759.643,444.541,751.44,440.297z"/>
			<g>
				<path style="fill:#1E141A;" d="M628.452,297.658c0.712-3.215,3.52,4.531,3.145,6.117c-0.433,1.835-6.334,6.108-7.69,7.819
					c-2.681-2.82-9.5-13.009-9.395-13.383L628.452,297.658z"/>
				<polygon style="fill:#1E141A;" points="625.422,305.402 612.555,480.705 599.94,489.518 593.592,476.215 623.114,305.088 				
					"/>
			</g>
			<path style="fill:#663F6B;" d="M606.765,253.14c0.732,9.248,8.644,32.995,18.692,35.156c8.698,0.386,38.682-28.198,40.55-38.955
				c0,0,5.624,3.619,9.357,6.165c-3.013,4.434-30.501,55.972-33.802,58.961c-5.99-4.553-11.429-10.598-16.926-15.735
				c-5.633,3.368-11.827,6.128-16.651,10.764C597.466,295.233,606.042,252.811,606.765,253.14z"/>
			<g>
				<g>
					<path style="fill:#FFB278;" d="M610.881,193.184c7.699-10.24-3.883-30.647-15.301-17.837
						c-4.239,4.752-5.584,16.861-1.518,21.991c4.321,5.449,11.771,2.499,15.131,3.315L610.881,193.184z"/>
					<path style="fill:#E5804E;" d="M600.256,178.085l0.104,0.356c1.719-0.895,4.959,0.683,5.733,2.669
						c0.965,2.477-0.357,3.297-2.019,4.758c-1.766,1.553-8.183,8.263-0.696,6.842C613.874,190.72,608.45,170.928,600.256,178.085z"
						/>
				</g>
				<path style="fill:#30241B;" d="M613.793,149.13c1.887-2.793,6.206-10.463,8.316-11.171l9.27,12.684
					c-0.461,1.633-3.756,3.401-5.359,4.773c-3.562,3.042-6.4,6.722-8.774,10.718c-3.621,6.096-6.143,12.62-9.399,18.874
					c-1.343-7.487-0.393-17.606,0.942-25.072C609.513,155.894,611.476,152.559,613.793,149.13z"/>
				<path style="fill:#FFB278;" d="M594.442,226.758c1.696-17.659,6.07-31.758,15.177-52.172
					c6.033-13.522,19.239-31.479,30.237-33.95c22.847-5.134,35.26,8.132,45.318,29.084c0,0-16.975,61.623-20.668,72.132
					c-7.626,21.71-41.932,15.637-49.273,13.299C587.557,246.344,593.513,236.442,594.442,226.758z"/>
				<g>
					<g>
						<path style="fill:#FFFFFF;" d="M641.86,204.804l4.274,1.511l0.068,0.022l8.402,2.984l0.096,0.03l4.034,1.434
							c1.625-2.004,1.393-5.936,0.012-9.073c-0.477-1.105-1.109-2.118-1.856-2.898c-0.633-0.687-1.357-1.197-2.134-1.462
							c-2.569-0.891-4.778-0.361-6.692,0.85c-0.326,0.212-0.654,0.434-0.968,0.68l-0.002,0.01
							C645.029,200.515,643.318,202.85,641.86,204.804z"/>
						<path style="fill:#30241B;" d="M647.096,198.883l-0.002,0.01c-0.481,2.392-0.935,5.085-0.96,7.422l0.068,0.022l8.402,2.984
							l0.096,0.03c1.639-2.062,2.94-4.939,4.047-7.639c-0.477-1.105-1.109-2.118-1.856-2.898c-0.633-0.687-1.357-1.197-2.134-1.462
							c-2.569-0.891-4.778-0.361-6.692,0.85C647.738,198.415,647.41,198.637,647.096,198.883z"/>
						<path style="fill:#FFFFFF;" d="M653.643,204.001c-0.878,1.211-1.282,2.404-0.902,2.666c0.378,0.262,1.395-0.506,2.27-1.717
							c0.878-1.209,1.283-2.402,0.904-2.664C655.538,202.023,654.519,202.791,653.643,204.001z"/>
					</g>
				</g>
				<g>
					<g>
						<path style="fill:#FFFFFF;" d="M606.01,190.826l3.188,1.105l0.049,0.016l6.262,2.185l0.074,0.021l3.005,1.049
							c1.631-1.977,2.084-5.619,1.483-8.438c-0.204-0.995-0.548-1.894-1.02-2.567c-0.396-0.593-0.895-1.017-1.476-1.21
							c-1.919-0.648-3.777,0.001-5.511,1.261c-0.295,0.221-0.596,0.451-0.888,0.7l-0.002,0.01
							C609.249,186.612,607.5,188.905,606.01,190.826z"/>
						<path style="fill:#30241B;" d="M611.174,184.948l-0.002,0.01c-0.774,2.259-1.575,4.795-1.974,6.972l0.049,0.016l6.262,2.185
							l0.074,0.021c1.65-2.034,3.16-4.801,4.488-7.388c-0.204-0.995-0.548-1.894-1.02-2.567c-0.396-0.593-0.895-1.017-1.476-1.21
							c-1.919-0.648-3.777,0.001-5.511,1.261C611.768,184.469,611.467,184.699,611.174,184.948z"/>
						<path style="fill:#FFFFFF;" d="M615.601,189.25c-0.9,1.186-1.421,2.325-1.158,2.542c0.261,0.216,1.202-0.569,2.103-1.756
							c0.9-1.186,1.419-2.325,1.157-2.542C617.444,187.277,616.502,188.063,615.601,189.25z"/>
					</g>
				</g>
				<path style="fill:#30241B;" d="M667.66,197.491l-2.458,4.247c-1.156,0.347-17.763-6.863-21.486-8.309
					c-0.35-2.2,1.405-4.964,2-6.892C653.011,190.354,660.412,193.297,667.66,197.491z"/>
				<path style="fill:#30241B;" d="M608.551,172.177l-0.53,5.055c0.551,1.088,14.369,7.181,17.385,8.68
					c1.284-1.471,1.53-4.873,2.094-6.801C621.116,176.943,615.088,174.015,608.551,172.177z"/>
				<path style="fill:#E5804E;" d="M625.871,200.636c-0.288,0.539-0.553,1.088-0.813,1.641c-0.261,0.545-0.558,1.072-0.807,1.617
					c-0.275,0.533-0.591,1.046-0.855,1.581l-0.932,1.525l-1.019,1.462c-0.395,0.451-0.744,0.93-1.126,1.388l-1.241,1.303
					l-1.338,1.235l-0.409,0.377l0.393,0.475c0.388,0.468,0.78,0.936,1.184,1.396c0.186,0.237,0.438,0.444,0.667,0.66l0.7,0.642
					c0.451,0.439,1.012,0.784,1.521,1.167c0.513,0.378,1.079,0.674,1.613,1.012c0.267,0.173,0.549,0.3,0.824,0.449l0.828,0.429
					c0.55,0.28,1.098,0.543,1.653,0.804c0.546,0.267,1.09,0.534,1.644,0.793c0.535,0.284,1.081,0.557,1.634,0.834
					c-0.476-0.37-0.956-0.747-1.452-1.113c-0.5-0.349-1.013-0.689-1.526-1.028c-1.023-0.669-2.057-1.306-3.02-1.975
					c-0.465-0.348-0.969-0.66-1.394-1.03l-0.643-0.545c-0.22-0.175-0.438-0.351-0.619-0.554l-0.573-0.581
					c-0.187-0.195-0.396-0.377-0.544-0.594c-0.32-0.419-0.651-0.83-0.986-1.24l-0.018,0.853l1.45-1.263
					c0.446-0.452,0.852-0.932,1.277-1.397c0.378-0.498,0.76-0.992,1.109-1.507l0.918-1.616c0.25-0.565,0.497-1.134,0.726-1.706
					c0.205-0.584,0.382-1.18,0.557-1.775c0.15-0.606,0.268-1.226,0.393-1.836C625.737,201.898,625.817,201.272,625.871,200.636z"/>
				<path style="fill:#E5804E;" d="M619.854,238.071c0,0,0.021-0.161,0.028-0.431c0.01-0.249-0.072-0.706-0.269-1.132
					c-0.182-0.453-0.509-0.924-0.932-1.341c-0.421-0.429-0.952-0.769-1.503-1.049c-1.119-0.537-2.365-0.697-3.28-0.543
					c-0.457,0.05-0.832,0.18-1.082,0.286c-0.254,0.113-0.388,0.197-0.388,0.197s0.142,0.088,0.376,0.206
					c0.235,0.12,0.559,0.285,0.929,0.461c0.742,0.372,1.673,0.788,2.568,1.22c0.222,0.108,0.444,0.216,0.662,0.322
					c0.217,0.109,0.427,0.215,0.63,0.326c0.21,0.103,0.394,0.219,0.589,0.32c0.171,0.116,0.375,0.203,0.527,0.317
					c0.332,0.222,0.593,0.381,0.809,0.57C619.719,237.978,619.854,238.071,619.854,238.071z"/>
				<path style="fill:#30241B;" d="M613.001,124.982c0.979,13.369,5.766,22.114,16.205,32.186
					c10.848,10.465,32.98,7.715,44.572,14.46c-0.553,3.327-8.512,6.526-7.079,13.254c1.276,5.973,6.352,11.329,3.753,15.649
					c-3.654,6.086-3.525,15.76-2.937,21.064l15.057-7.217c6.478-2.316,19.759-16.607,22.843-25.28
					c5.443-15.3-1.323-18.805-9.471-27.513c0.026-0.066,0.055-0.143,0.071-0.215c5.166-15.322-16.543-39.173-28.13-44.579
					c-12.924-6.025-32.572-2.095-47.694,4.604C617.649,122.518,615.231,123.734,613.001,124.982z"/>
				<g>
					<path style="fill:#FFB278;" d="M669.272,217.867c4.342-12.055,27.758-13.558,23.307,3.016
						c-1.651,6.149-11.039,13.914-17.559,13.326c-6.928-0.625-8.543-8.473-11.07-10.837L669.272,217.867z"/>
					<path style="fill:#E5804E;" d="M687.726,218.472l-0.358,0.106c-0.193-1.927-3.289-3.771-5.373-3.33
						c-2.602,0.551-2.563,2.106-2.873,4.296c-0.331,2.33-2.423,11.375-5.342,4.335C669.691,214.011,689.219,207.697,687.726,218.472
						z"/>
				</g>
				<path style="fill:#E5804E;" d="M639.203,227.892c0,0-0.12,0.105-0.346,0.303c-0.234,0.197-0.576,0.441-1.055,0.712
					c-0.949,0.551-2.391,1.162-4.195,1.625c-0.897,0.245-1.891,0.419-2.936,0.581c-1.049,0.154-2.162,0.206-3.307,0.241
					c-1.146,0.01-2.32-0.1-3.498-0.256c-1.172-0.19-2.338-0.488-3.453-0.905c-1.112-0.428-2.174-0.962-3.138-1.621
					c-0.923-0.703-1.849-1.402-2.56-2.275c-0.749-0.833-1.364-1.741-1.909-2.635c-0.259-0.454-0.471-0.919-0.71-1.356
					c-0.22-0.445-0.391-0.897-0.58-1.322c-0.202-0.421-0.307-0.857-0.459-1.257c-0.135-0.404-0.296-0.782-0.382-1.155
					c-0.183-0.741-0.413-1.382-0.517-1.926c-0.237-1.084-0.393-1.711-0.393-1.711s-0.015,0.636-0.005,1.764
					c-0.005,0.567,0.082,1.243,0.155,2.031c0.098,0.781,0.244,1.668,0.493,2.617c0.138,0.471,0.259,0.971,0.432,1.475
					c0.193,0.496,0.389,1.014,0.62,1.535c0.499,1.026,1.076,2.105,1.883,3.083c0.759,1.014,1.73,1.922,2.797,2.727
					c1.093,0.778,2.298,1.417,3.556,1.922c1.277,0.451,2.59,0.759,3.895,0.945c1.307,0.166,2.6,0.165,3.839,0.1
					c2.475-0.181,4.728-0.75,6.542-1.502c0.913-0.354,1.713-0.781,2.397-1.186c0.68-0.415,1.243-0.825,1.666-1.212
					c0.433-0.363,0.725-0.734,0.902-0.965C639.112,228.023,639.203,227.892,639.203,227.892z"/>
				<path style="fill:#4C3526;" d="M620.192,121.393c0.152,0.657,0.294,1.288,0.434,1.881c3.018,13.409,12.164,24.891,24.005,31.263
					c12.498,6.728,31.033,15.495,45.633,10.105c2.133-0.794,4.054-1.898,5.752-3.273c5.166-15.322-16.543-39.173-28.13-44.579
					C654.962,110.765,635.314,114.694,620.192,121.393z"/>
				<g>
					<path style="fill:#30241B;" d="M633.402,202.311c3.614-7.183,12.398-10.087,19.581-6.474
						c7.183,3.614,10.087,12.398,6.474,19.581c-3.614,7.184-12.397,10.088-19.582,6.474
						C632.692,218.279,629.788,209.495,633.402,202.311z M634.809,203.02c-3.222,6.407-0.633,14.241,5.775,17.464
						c6.406,3.223,14.241,0.633,17.464-5.773c3.224-6.407,0.634-14.242-5.774-17.465
						C645.867,194.023,638.034,196.613,634.809,203.02z"/>
					<path style="fill:#30241B;" d="M597.836,186.184c3.614-7.184,12.398-10.088,19.581-6.474
						c7.184,3.614,10.088,12.398,6.474,19.582c-3.615,7.183-12.399,10.087-19.581,6.474
						C597.125,202.151,594.222,193.368,597.836,186.184z M599.244,186.893c-3.223,6.407-0.633,14.242,5.773,17.464
						c6.408,3.224,14.243,0.633,17.465-5.773c3.224-6.407,0.633-14.242-5.774-17.465
						C610.302,177.896,602.468,180.486,599.244,186.893z"/>
					<path style="fill:#30241B;" d="M624.388,197.265c1.563-1.244,3.22-1.639,4.795-1.142c2.084,0.658,3.836,2.79,4.697,5.71
						l1.512-0.447c-1.01-3.423-3.152-5.953-5.735-6.766c-1.463-0.462-3.734-0.592-6.254,1.411L624.388,197.265z"/>
				</g>
			</g>
			<path style="fill:#663F6B;" d="M735.478,387.366c11.849-7.101,23.443,1.375,32.356,9.896
				c27.396,26.189,6.901,46.684,6.901,46.684c-4.509,3.33-12.846,5.167-18.919,2.365
				C725.073,432.122,713.732,400.398,735.478,387.366z"/>
			<g>
				<path style="fill:#FFB278;" d="M745.395,420.669c0,0,0.457,0.97,1.246,2.522c3.034,5.975,10.957,20.661,16.514,22.655
					c9.562,3.445,12.077-3.46,16.917-9.168c10.69-12.613,17.342-26.526,21.229-43.489c5.589-24.413,5.51-55.502,5.896-84.882
					c0.024-1.726,0.048-3.453,0.08-5.163l-17.957-3.965c-7.63,18.753-15.104,36.205-26.541,54.092
					C750.787,372.024,738.474,397.352,745.395,420.669z"/>
				<g>
					<g>
						<path style="fill:#FFB278;" d="M786.152,315.435c0.382-0.409,1.955,7.967,2.24,7.546l11.636-12.55
							c6.333-1.322,10.034-5.741,15.022-9.451c4.84-3.595,10.901-5.142,15.95-8.633c8.406-5.821,24.492-26.201,16.557-29.68
							c-2.887,0.234-10.426,20.276-8.403,13.604c1.593-5.255,16.742-26.634,8.345-31.421c-2.901-0.346-6.784,17.369-12.829,24.901
							c-0.235,0.294-0.471,0.568-0.717,0.834c0.11-0.297,0.29-0.694,0.512-1.189c3.132-6.9,16.133-31.676,8.17-33.451
							c-2.205,0.339-4.576,5.678-7.174,11.938c2.175-6.053,2.92-11.249-0.989-10.986c-2.707,0.185-7.512,10.276-10.796,16.411
							c-1.029,1.925-1.907,3.465-2.524,4.177c-3.473,4.009-7.302,7.691-11.484,10.978c-0.822,0.656-1.665,1.295-2.529,1.914
							c-0.677,0.495-1.376,0.979-2.073,1.454C799.429,275.647,790.003,285.87,786.152,315.435z M827.024,265.242
							c0.168-0.262,0.409-0.633,0.69-1.104c0.45-0.76,1.012-1.76,1.649-2.937c0.936-1.737,2.004-3.828,3.055-6.064
							c-0.956,2.201-1.945,4.327-2.959,6.213c-0.559,1.029-1.114,1.979-1.693,2.834
							C827.526,264.555,827.275,264.909,827.024,265.242z"/>
					</g>
					<path style="fill:#FFB278;" d="M792.887,293.215l16.079-11.619c1.073-0.99,1.809-2.502,2.194-4.198
						c0.687-3.018,0.237-6.627-1.492-8.935c-0.461-0.621-1.023-1.149-1.674-1.547c0.574-4.142,7.836-16.907,4.362-21.649
						c-0.452-0.631-1.109-1.125-1.988-1.432c-3.092,8.261-10.971,13.646-13.995,21.429c-1.44,3.718-3.03,14.224-3.694,19.976
						c-0.109,0.954-0.199,1.78-0.249,2.422C792.054,292.026,793.646,289.933,792.887,293.215z"/>
					<g>
						<path style="fill:#E5804E;" d="M804.536,267.638c0.949,0.854,1.824,1.781,2.604,2.741c1.739,2.134,3.083,4.503,4.021,7.021
							c1.815,4.827,2.162,10.183,0.989,15.356c3.586-5.573,2.829-15.876,0.178-21.602c4.728-2.699,6.716-6.798,10.439-10.657
							c1.835,0.813,3.475,2.082,4.947,3.641c0.021,0.009,0.041,0.026,0.051,0.046c4.964,5.254,9.174,9.711,6.906,5.568
							c-0.065-0.112-0.13-0.234-0.205-0.356c-0.884-1.603-1.864-3.161-2.849-4.661c-0.52-0.793-1.277-2.005-2.159-3.386
							c-0.041-0.046-0.073-0.102-0.095-0.149c-1.666-2.583-3.772-5.739-5.685-7.892c-1.029,1.925-1.907,3.465-2.524,4.177
							c-3.473,4.009-7.302,7.691-11.484,10.978c-0.461-0.621-1.023-1.149-1.674-1.547c0.574-4.142,7.836-16.907,4.362-21.649
							C811.865,253.012,806.576,263.102,804.536,267.638z"/>
					</g>
				</g>
				<path style="fill:#E5804E;" d="M746.641,423.191c3.034,5.975,10.957,20.661,16.514,22.655c9.562,3.445,12.077-3.46,16.917-9.168
					c10.69-12.613,17.342-26.526,21.229-43.489c5.589-24.413,5.51-55.502,5.896-84.882c-7.11,7.741-6.338,25.296-7.236,33.951
					c-1.482,14.37-2.365,63.85-26.037,89.919c-0.927,1.021-4.13-3.145-6.322-3.24c-2.168-0.095-4.627,2.727-7.883,2.435
					C754.003,430.869,749.857,427.637,746.641,423.191z"/>
			</g>
		</g>
		<g>
			<path style="fill:#203F5E;" d="M507.199,445.033c44.289,13.288,102.224,36.318,127.982,42.994
				c15.449,4.003,61.12,25.786,59.944,44.215c-0.872,13.668-17.736,35.629-28.25,42.989c-24.566,17.196-36.373,19.112-65.098,14.739
				c-19.386-2.952-105.984-67.418-107.211-75.878L507.199,445.033z"/>
			<g>
				<path style="fill:#798C9E;" d="M325.789,663.881l6.34,5.248c-0.175,2.945-2.279,12.278-6.34,21.792
					c-12.57-7.235-39.074-21.602-49.985-31.705C285.37,654.817,316.949,663.95,325.789,663.881z"/>
				<path style="fill:#203F5E;" d="M443.967,418.904c66.977,15.754,191.214,69.122,191.214,69.122
					c-6.703,24.574-61.613,55.608-81.655,71.923c-25.386-12.283-77.644-52.422-91.716-61.417
					c-9.274,12.221-110.009,148.424-129.681,170.597c-2.092-0.818-5.11-3.392-6.34-5.248
					c13.429-42.269,69.235-173.184,81.829-194.155C414.397,458.441,430.235,415.674,443.967,418.904z"/>
			</g>
		</g>
	</g>
	<path style="fill:#E54A6E;" d="M449.942,589.675v18.016c0,4.52,3.669,8.189,8.189,8.189h270.235c4.52,0,8.189-3.669,8.189-8.189
		v-18.016c0-4.528-3.669-8.189-8.189-8.189H458.131C453.61,581.486,449.942,585.146,449.942,589.675z"/>
	<path style="fill:#E54A6E;" d="M681.771,614.839c-0.106,0.361-0.237,0.688-0.344,1.04h91.585
		c20.8-9.253,38.021-23.584,46.677-46.054c3.546-9.221,5.052-19.269,5.2-29.628c0.335-23.51-6.314-48.618-11.956-69.287
		c-5.47-20.055-10.932-38.48-16.402-55.374c-0.164,0.778-0.344,1.548-0.524,2.318c-1.859,7.869-4.537,15.51-8.926,22.757
		c-3.186,5.266-6.781,10.031-11.227,14.036c-13.913,16.108-57.314,8.484-76.837,17.262c-33.665,15.133-15.158,59.304-15.477,91.904
		c-0.057,5.388,0.205,11.456,0.401,17.671C684.309,593.204,684.432,605.471,681.771,614.839z"/>
</g>
<g>
	<polygon style="fill:#898F93;" points="646.93,802.832 666.218,433.14 680.043,433.203 650.164,802.832 	"/>
	<polygon style="fill:#626B72;" points="525.95,802.832 548.412,431.858 560.069,433.203 530.189,802.832 	"/>
	<polygon style="fill:#626B72;" points="235.234,802.832 205.355,433.203 217.982,431.858 238.475,802.832 	"/>
	<polygon style="fill:#898F93;" points="355.169,802.832 325.29,433.203 338.661,434.423 359.012,802.832 	"/>
	<g>
		<g>
			<rect x="181.623" y="420.72" style="fill:#898F93;" width="519.741" height="22.555"/>
			<rect x="514.958" y="420.72" style="fill:#626B72;" width="186.405" height="22.555"/>
		</g>
		<rect x="166.641" y="415.507" style="fill:#CED9DD;" width="549.702" height="10.416"/>
	</g>
</g>
<g>
	<g>
		<path style="fill:#626B72;" d="M277.676,410.575c0,3.129,2.981,5.664,6.658,5.664h204.736c3.677,0,6.657-2.535,6.657-5.664l0,0
			c0-3.128-2.98-5.663-6.657-5.663H284.335C280.658,404.912,277.676,407.448,277.676,410.575L277.676,410.575z"/>
		<g>
			<g>
				<path style="fill:#C1C1C1;" d="M235.431,411.051c0.654,2.93,3.559,5.305,6.487,5.305h164.966c2.929,0,4.677-2.375,3.902-5.305
					L381.607,300.72c-0.774-2.93-3.71-5.305-6.555-5.305H214.799c-2.845,0-4.622,2.375-3.97,5.305L235.431,411.051z"/>
			</g>
			<g>
				<path style="fill:#626B72;" d="M231.897,411.051c0.651,2.93,3.552,5.305,6.482,5.305h164.966c2.929,0,4.678-2.375,3.906-5.305
					L378.164,300.72c-0.772-2.93-3.706-5.305-6.551-5.305H211.36c-2.845,0-4.626,2.375-3.975,5.305L231.897,411.051z"/>
			</g>
			<g>
				<path style="fill:#FFFFFF;" d="M300.94,355.885c0.708,2.932,3.63,5.31,6.524,5.31c2.894,0,4.66-2.378,3.944-5.31
					c-0.716-2.932-3.637-5.309-6.524-5.309C301.998,350.576,300.232,352.953,300.94,355.885z"/>
			</g>
		</g>
	</g>
	<g>
		<polygon style="fill:#FFFDEE;" points="321.728,359.469 322.533,365 324.419,377.966 327.958,402.265 330.07,416.772 
			355.457,416.772 357.372,403.621 357.568,402.265 361.108,377.966 362.993,365 363.799,359.469 		"/>
		<polygon style="fill:#844512;" points="324.419,377.966 327.958,402.265 357.568,402.265 361.108,377.966 		"/>
		<path style="opacity:0.5;fill:#844512;" d="M321.728,359.469l0.805,5.531l1.886,12.966l3.539,24.299l2.111,14.507h25.387
			l2.66-19.101c-2.151,0.065-14.265,3.385-19.343-8.365c-1.539-3.563-2.684-7.391-3.554-11.341
			c-1.335-6.031-2.02-12.353-2.462-18.497H321.728z"/>
		<g>
			<path style="fill:#91918D;" d="M321.366,356.205c0,1.603,1.299,2.901,2.901,2.901h36.992c1.603,0,2.901-1.299,2.901-2.901l0,0
				c0-1.602-1.299-2.901-2.901-2.901h-36.992C322.664,353.304,321.366,354.603,321.366,356.205L321.366,356.205z"/>
			<path style="fill:#91918D;" d="M316.288,360.558c0,2.454,1.137,4.443,2.539,4.443H366.7c1.402,0,2.539-1.989,2.539-4.443l0,0
				c0-2.454-1.137-4.443-2.539-4.443h-47.873C317.425,356.115,316.288,358.104,316.288,360.558L316.288,360.558z"/>
		</g>
	</g>
</g>
<g>
	<g>
		<g>
			<polygon style="fill:#3C4042;" points="966.377,532.848 971.424,772.692 951.462,772.692 957.465,532.848 			"/>
			<g>
				<g>
					<path style="fill:#3C4042;" d="M962.668,750.666c3.671,1.224,97.895,39.159,97.895,39.159v12.237h-97.895V750.666z"/>
					<path style="fill:#3C4042;" d="M961.444,750.666c-3.672,1.224-97.896,39.159-97.896,39.159v12.237h97.896V750.666z"/>
				</g>
				<path style="fill:#828A8E;" d="M962.668,750.666c-1.974,1.224-52.619,39.159-52.619,39.159v12.237h52.619V750.666z"/>
			</g>
		</g>
		<g>
			<path style="fill:#892743;" d="M787.546,588.071c2.047,15.559,8.664,28.481,24.501,34.393h40.806
				c3.136-11.235,5.052-24.001,11.826-34.393c0.368-0.565,0.744-1.13,1.145-1.679c9.942-13.766,26.745-21.537,38.923-32.592
				c17.155-15.567,25.63-35.515,29.709-59.64c6.985-41.297-4.323-85.247,3.063-125.405c0,0,13.806-73.447,4.242-63.096
				c-0.549,0.589-1.097,1.22-1.638,1.892c-0.008,0.008-0.008,0.008-0.016,0.016c-22.831,28.096-41.748,121.188-52.057,139.728
				c-21.43,38.512-88.588,22.323-95.443,75.592C790.068,542.606,784.869,567.623,787.546,588.071z"/>
			<path style="fill:#AA2D4B;" d="M800.608,588.07c0.163,5.732,0.565,10.375,0.565,12.816c0,9.18,4.446,17.205,11.071,21.578
				h280.741c20.8-9.254,38.021-23.584,46.677-46.055c3.546-9.22,5.052-19.268,5.2-29.628c-0.32-22.478-6.6-46.12-11.956-65.757
				c-5.568-20.44-11.227-39.283-16.927-56.586c-40.453-122.728-83.469-168.143-118.191-159.799c-0.155,0.032-0.32,0.123-0.483,0.131
				c-25.632,1.63-43.926,18.54-57.183,42.779c-0.008,0.008-0.008,0.008-0.016,0.016c-34.705,63.448-34.91,177.045-41.952,197.738
				c-8.885,26.082-58.853,14.02-84.747,36.572C801.165,552.546,800.173,573.723,800.608,588.07z"/>
		</g>
	</g>
	<g>
		<path style="fill:#4F2D34;" d="M1033.51,190.246c-1.942-5.641-7.919-24.059-13.884-25.472l-65.052,48.654
			c-4.936,6.954-7.18,16.116-9.753,24.298c-3.643,11.573-17.654-6.417-18.193,5.728c-0.47,10.671-10.969,58.778-3.452,66.889
			c6.171,6.659,36.42,6.341,45.106,8.611c11.594,3.03,50.359,9.974,61.121,4.849c10.702-5.096-11.09-20.315-4.63-29.57
			c12.582-18.032,16.291-40.484,15.237-62.494C1039.372,218.368,1037.868,202.913,1033.51,190.246z"/>
		<g>
			<path style="fill:#AFAF2B;" d="M958.226,301.885l0.998-10.552c-22.093-6.773-32.477,10.434-41.668,25.693
				c-11.852,19.677-19.5,40.21-27.041,62.441c-1.993,5.874-4.29,11.701-4.376,18c-1.734,13.211,1.231,27.609,7.698,30.642
				c6.388,2.996,15.693,1.94,26.014-9.293C934.435,390.571,959.982,322.803,958.226,301.885z"/>
			<path style="fill:#FFB278;" d="M867.422,350.301c1.582,12.698,25.648,32.782,37.591,39.718
				c11.367,6.602,36.524,16.4,40.562,30.065c5.401,18.287-20.381,22.208-33.301,17.151c-16.479-6.448-29.85-21.018-40.878-33.801
				c-10.227-11.848-16.384-25.233-21.224-39.329L867.422,350.301z"/>
			<g>
				<g>
					<polygon style="fill:#FFFDEE;" points="835.685,318.421 836.491,323.953 838.377,336.918 841.916,361.217 844.027,375.724 
						869.414,375.724 871.329,362.574 871.526,361.217 875.065,336.918 876.951,323.953 877.755,318.421 					"/>
					<polygon style="fill:#844512;" points="838.377,336.918 841.916,361.217 871.526,361.217 875.065,336.918 					"/>
					<path style="opacity:0.5;fill:#844512;" d="M835.685,318.421l0.806,5.531l1.886,12.966l3.539,24.299l2.111,14.507h25.387
						l2.66-19.101c-2.151,0.065-14.265,3.385-19.343-8.364c-1.54-3.563-2.684-7.391-3.554-11.341
						c-1.336-6.031-2.02-12.353-2.463-18.497H835.685z"/>
					<g>
						<path style="fill:#91918D;" d="M835.323,315.157c0,1.603,1.299,2.901,2.901,2.901h36.993c1.603,0,2.901-1.299,2.901-2.901l0,0
							c0-1.602-1.299-2.901-2.901-2.901h-36.993C836.622,312.256,835.323,313.555,835.323,315.157L835.323,315.157z"/>
						<path style="fill:#91918D;" d="M830.245,319.51c0,2.453,1.137,4.443,2.538,4.443h47.873c1.403,0,2.54-1.989,2.54-4.443l0,0
							c0-2.454-1.137-4.443-2.54-4.443h-47.873C831.382,315.067,830.245,317.056,830.245,319.51L830.245,319.51z"/>
					</g>
				</g>
				<g>
					<path style="fill:#FFB278;" d="M834.581,338.949c-0.827-3.095,4.064-7.518,6.734-8.408c3.624-1.209,7.736-1.555,11.362-0.806
						c1.513,4.371-7.472,4.821-9.87,5.551c-0.449,3.033-4.718,14.728-8.342,7.285L834.581,338.949z"/>
					<path style="fill:#FFB278;" d="M835.355,345.946c-0.844-3.092,4.982-7.733,8.109-8.732c4.242-1.354,9.019-1.856,13.19-1.235
						c1.59,4.353-8.832,5.139-11.639,5.965c-0.63,3.076-6.011,15.031-9.932,7.659L835.355,345.946z"/>
					<path style="fill:#FFB278;" d="M836.491,352.599c-0.854-3.088,4.342-7.638,7.17-8.593c3.837-1.297,8.187-1.737,12.015-1.07
						c1.57,4.353-7.928,5.009-10.466,5.797c-0.494,3.055-5.078,14.89-8.862,7.504L836.491,352.599z"/>
					<path style="fill:#FFB278;" d="M839.165,357.038c-0.019-2.769,5.097-5.101,7.555-5.119c3.335-0.025,6.895,0.792,9.798,2.379
						c0.318,4.004-7.389,1.968-9.581,1.926c-1.049,2.379-7.242,10.863-8.67,3.765L839.165,357.038z"/>
				</g>
				<path style="fill:#FFB278;" d="M871.857,339.572c-1.235-2.709-2.913-8.719,0.109-11.012c1.753,1.738,2.647,4.989,3.821,7.199
					c1.203,2.261,2.797,3.946,2.661,6.612c-0.262,5.134-4.64,12.283-6.278,15.013C872.17,357.383,866.688,344.141,871.857,339.572z"
					/>
			</g>
		</g>
		<g>
			<g>
				<path style="fill:#AFAF2B;" d="M902.073,371.494c0.644,4.501,1.662,8.268,2.896,11.677c3.557,9.853,8.896,16.763,12.229,29.836
					c4.464,17.542,8.574,50.184,1.356,67.225c-7.271,17.153-7.093,19.872-15.765,36.537c-5.652,10.864,129.692,25.38,130.583,16.906
					c2.261-21.379-16.001-48.841-19.782-68.831c-7.431-39.28,14.67-68.547,27.003-102.426c4.555-12.517,16.288-28.984,16.059-42.179
					c-0.084-4.814-1.758-9.204-5.979-12.794c-12.848-10.95-21.995-16.769-46.472-26.16l-48.396,3.492
					c-9.7,5.636-24.149,7.031-27.962,18.573c-2.991,9.057-5.259,18.098-9.206,27.044
					C912.13,345.143,899.837,355.853,902.073,371.494z"/>
				<g>
					<path style="fill:#FFB278;" d="M949.033,249.965c0.326,2.686,1.26,5.323,1.924,7.944c0.777,3.087,2.137,6.797,3.284,10.572
						c1.089,3.554,1.449,10.752,1.228,15.862c-0.082,1.851-0.238,3.432-0.467,4.463c-0.761,3.448-0.189,11.333,2.055,18.204
						c1.745-4.496,4.512-8.73,8.394-9.327c4.488,4.962,6.945,11.08,10.023,16.738c14.241-7.689,36.065-24.902,39.839-29.095
						c-2.695-1.409-5.265-3.194-7.64-5.241l-0.024-0.016c-8.698-7.518-14.75-18.573-14.43-27.482
						c0.099-2.768,0.435-7.902,1.113-13.315c1.073-8.377,2.989-17.459,6.183-19.588L949.033,249.965z"/>
					<path style="fill:#E5804E;" d="M1000.516,219.684c-3.194,2.129-5.11,11.207-6.182,19.59
						c-3.536,4.529-5.961,10.921-10.22,15.256c-5.919,6.034-18.048,18.039-29.874,13.953c-1.147-3.779-2.501-7.484-3.282-10.572
						c-0.664-2.622-1.599-5.257-1.922-7.944L1000.516,219.684z"/>
				</g>
				<g>
					<path style="fill:#663D43;" d="M992.559,151.259l-9.987,18.339l-0.955,1.744c-2.057,0.281-4.21,0.881-6.409,1.723
						c-9.288,3.551-19.378,11.358-26.049,17.128c-3.047,2.637-6.51,6.544-9.799,10.27c-6.191,6.978-11.804,13.307-13.086,9.335
						c-9.547-29.574-9.884-55.534,6.837-65.179c8.386-4.834,16.303-7.946,32.276-3.003c1.607,0.494,5.964,2.417,11.119,4.456
						C981.707,148.117,987.724,150.294,992.559,151.259z"/>
					<path style="fill:#FFB278;" d="M996.973,182.962c-4.434-2.749-8.347-6.717-12.106-10.691c-0.796-0.839-1.553-1.736-2.295-2.673
						c-3.191-4.021-5.995-8.731-9.235-12.615c-8.184-1.794-17.165-1.337-24.148,1.158c-8.144,2.915-13.608,13.499-17.474,27.525
						c-3.347,12.131-5.491,26.845-7.148,41.382c-1.348,11.881,11.664,26.449,18.95,36.583c7.506,10.448,34.139-7.195,42.53-14.469
						c8.373-7.255,12.333-14.02,13.795-23.769c0.134-0.96,0.259-1.948,0.352-2.964C1001.863,204.8,999.497,192.852,996.973,182.962z
						"/>
					<g>
						<path style="fill:#5B2500;" d="M982.187,202.339c-0.558,0.722-0.565,1.906,0.032,2.666c-1.86-0.525-3.424-2.283-2.745-3.796
							c-0.406,0.827-0.814,1.759-0.251,2.583c-1.47-0.005-2.988-1.297-3.285-2.176c0.224,2.644,2.129,2.879,3.696,4.506l5.033,3.416
							C984.669,207.161,981.082,204.748,982.187,202.339z"/>
						<g>
							<path style="fill:#E5804E;" d="M975.423,206.927c-3.544,3.107-5.66,9.117-5.66,9.117c-0.472,0.8-0.649,0.658-0.798,1.551
								c6.949,0.143,12.407,1.485,18.619,4.066C988.448,216.533,983.701,199.673,975.423,206.927z"/>
							<g>
								<path style="fill:#FFFFFF;" d="M985.889,218.953c-0.747-0.532-1.943-0.984-3.352-1.362
									c-3.703-0.994-8.889-1.465-11.426-1.435c-0.675,0.006-1.156,0.04-1.387,0.115c0.064-0.362,0.315-1.024,0.702-1.845v-0.009
									c1.59-3.413,5.424-9.589,7.909-8.82c2.449,0.755,4.171,3.098,5.433,6.092C984.691,213.877,985.368,216.429,985.889,218.953z
									"/>
							</g>
							<path style="fill:#192E42;" d="M983.768,211.69c-0.062,2.238-0.5,4.266-1.232,5.901c-3.703-0.994-8.889-1.465-11.426-1.435
								c-0.254-0.55-0.483-1.124-0.685-1.73v-0.009c1.59-3.413,5.424-9.589,7.909-8.82
								C980.784,206.353,982.507,208.695,983.768,211.69z"/>
							<path style="fill:#FFFFFF;" d="M975.853,213.205c0.072,0.862-0.296,1.571-0.819,1.582c-0.523,0.011-1.006-0.68-1.076-1.542
								c-0.072-0.863,0.294-1.571,0.819-1.583C975.301,211.651,975.783,212.342,975.853,213.205z"/>
						</g>
					</g>
					<g>
						<path style="fill:#5B2500;" d="M938.374,197.649c-0.467,0.72-0.457,1.904,0.058,2.664c-1.587-0.53-2.943-2.292-2.382-3.803
							c-0.334,0.826-0.672,1.755-0.182,2.582c-1.252-0.01-2.561-1.306-2.826-2.186c0.226,2.644,1.851,2.885,3.204,4.517l4.326,3.43
							C940.546,202.477,937.461,200.054,938.374,197.649z"/>
						<g>
							<path style="fill:#E5804E;" d="M932.364,202.217c-2.161,3.225-2.786,8.936-2.786,8.936c-0.226,0.78-0.381,0.672-0.35,1.502
								c5.233-0.649,9.537-0.038,14.607,1.617C943.667,209.506,937.407,194.686,932.364,202.217z"/>
							<g>
								<path style="fill:#FFFFFF;" d="M942.131,211.997c-0.644-0.4-1.614-0.679-2.729-0.864c-2.935-0.492-6.901-0.339-8.797-0.028
									c-0.502,0.081-0.859,0.166-1.019,0.261c-0.011-0.337,0.07-0.968,0.23-1.76l-0.002-0.008c0.646-3.285,2.53-9.338,4.517-8.916
									c1.956,0.413,3.623,2.354,5.048,4.937C940.423,207.508,941.34,209.757,942.131,211.997z"/>
							</g>
							<path style="fill:#192E42;" d="M939.38,205.619c0.314,2.047,0.306,3.943,0.022,5.514c-2.935-0.492-6.901-0.339-8.797-0.028
								c-0.278-0.473-0.539-0.97-0.789-1.499l-0.002-0.008c0.646-3.285,2.53-9.338,4.517-8.916
								C936.289,201.095,937.955,203.036,939.38,205.619z"/>
							<path style="fill:#FFFFFF;" d="M934.165,208.213c0.192,0.777,0.03,1.463-0.36,1.533c-0.392,0.068-0.864-0.506-1.056-1.284
								c-0.19-0.778-0.03-1.464,0.361-1.533C933.501,206.861,933.973,207.435,934.165,208.213z"/>
						</g>
					</g>
					<path style="fill:#E5804E;" d="M936.562,235.332c0,0,0.4,0.242,1.072,0.692c0.331,0.235,0.745,0.502,1.222,0.771
						c0.478,0.271,0.979,0.604,1.588,0.898c0.592,0.308,1.232,0.641,1.932,0.932c0.68,0.333,1.443,0.57,2.202,0.862
						c0.774,0.262,1.59,0.482,2.417,0.677c0.417,0.091,0.835,0.181,1.257,0.272l1.281,0.159c0.425,0.082,0.856,0.079,1.284,0.112
						c0.427,0.028,0.854,0.062,1.276,0.031c0.422-0.01,0.843-0.022,1.257-0.031c0.414-0.044,0.822-0.085,1.224-0.128
						c0.409-0.016,0.787-0.146,1.177-0.197c0.381-0.075,0.771-0.111,1.123-0.234c0.713-0.21,1.414-0.371,2.023-0.631
						c0.31-0.116,0.608-0.226,0.893-0.333c0.275-0.129,0.536-0.254,0.784-0.369c0.494-0.231,0.937-0.43,1.27-0.646
						c0.691-0.396,1.113-0.616,1.113-0.616s-0.289,0.355-0.84,0.969c-0.266,0.319-0.627,0.659-1.081,1.015
						c-0.221,0.186-0.457,0.383-0.709,0.59c-0.267,0.184-0.56,0.356-0.864,0.547c-0.592,0.411-1.299,0.735-2.058,1.064
						c-0.761,0.314-1.598,0.596-2.481,0.787c-0.445,0.085-0.897,0.172-1.356,0.259c-0.461,0.065-0.934,0.09-1.407,0.12
						c-0.478,0.048-0.956,0.024-1.436,0.007c-0.481-0.024-0.969-0.008-1.444-0.088l-1.43-0.22c-0.467-0.115-0.929-0.228-1.39-0.34
						c-0.464-0.092-0.901-0.272-1.336-0.434c-0.429-0.173-0.872-0.298-1.268-0.508c-0.817-0.373-1.587-0.766-2.268-1.223
						c-0.708-0.405-1.313-0.894-1.86-1.341c-0.569-0.413-1.017-0.911-1.425-1.311c-0.422-0.394-0.728-0.777-0.973-1.097
						C936.833,235.711,936.562,235.332,936.562,235.332z"/>
					<path style="fill:#E5804E;" d="M945.735,245.087c0,0,0.147,0.106,0.389,0.303c0.25,0.199,0.576,0.448,1.009,0.722
						c0.417,0.277,0.928,0.553,1.483,0.788c0.277,0.126,0.574,0.21,0.87,0.297c0.299,0.073,0.605,0.156,0.913,0.161
						c0.307,0.052,0.613,0.029,0.915,0.021c0.293-0.061,0.597-0.064,0.872-0.17c0.569-0.14,1.057-0.422,1.496-0.664
						c0.401-0.285,0.766-0.523,0.99-0.732c0.245-0.191,0.385-0.3,0.385-0.3s-0.069,0.161-0.214,0.441
						c-0.077,0.135-0.147,0.324-0.286,0.494c-0.131,0.177-0.28,0.382-0.462,0.593c-0.203,0.185-0.411,0.412-0.678,0.597
						c-0.273,0.174-0.553,0.388-0.899,0.503c-0.33,0.154-0.696,0.24-1.073,0.315c-0.381,0.028-0.771,0.067-1.156,0.018
						c-0.385-0.027-0.758-0.137-1.116-0.241c-0.358-0.11-0.686-0.277-0.99-0.45c-0.312-0.163-0.581-0.375-0.827-0.569
						c-0.242-0.207-0.469-0.404-0.643-0.618c-0.369-0.394-0.62-0.803-0.761-1.067C945.81,245.253,945.735,245.087,945.735,245.087z"
						/>
					<path style="fill:#5B2500;" d="M942.654,190.405c-3.595-5.993-10.772-2.186-12.475,3.631c1.305-2.899,3.84-2.876,6.358-2.081
						C937.69,192.32,944.303,193.378,942.654,190.405z"/>
					<path style="fill:#5B2500;" d="M972.243,194.924c4.152-6.37,14.254-3.406,17.211,2.184c-2.089-2.733-5.499-2.421-8.797-1.343
						C979.143,196.261,970.364,198.068,972.243,194.924z"/>
					<path style="fill:#E5804E;" d="M945.295,227.697c2.634-4.013,4.214-10.002,3.789-12.97c0,0-4.072,10.665-6.941,13.3
						c2.652,1.503,5.083,4.103,8.197,1.872C948.734,230.41,946.088,229.531,945.295,227.697z"/>
					<path style="fill:#663D43;" d="M1024.796,182.655c-0.189,3.986-0.867,7.891-2.007,11.475
						c-4.846,15.246-17.216,25.986-28.669,36.527c-0.032-14.951,6.078-26.548-1.051-41.755c-3.928-8.372-9.691-9.807-16.592-14.821
						c-0.433-0.313-0.851-0.655-1.268-1.016c-2.29-1.948-4.293-4.502-5.417-7.241c-0.931-2.234-4.998-10.199-5.158-10.343
						c0,0,1.163-1.545,3.365-3.549c0.128-0.111,0.254-0.231,0.382-0.352c1.983-1.766,4.725-3.836,8.125-5.507
						c8.12-4.011,20.018-5.831,34.477,3.812c6.388,4.257,10.451,11.135,12.435,18.781
						C1024.58,173.187,1025.025,177.972,1024.796,182.655z"/>
					<path style="fill:#4F2D34;" d="M973.337,156.983c-8.184-1.794-17.165-1.337-24.148,1.158
						c-8.144,2.915-13.608,13.499-17.474,27.525l-0.44-0.428c-3.272-3.369,2.532-18.279,4.985-22.757
						c3.704-6.75,10.951-10.842,18.11-12.669c5.699-1.46,10.025-0.345,13.627,2.121
						C969.961,153.276,971.706,155.022,973.337,156.983z"/>
					<path style="fill:#4F2D34;" d="M1024.796,182.655c-0.189,3.986-0.867,7.891-2.007,11.475
						c-4.846,15.246-17.216,25.986-28.669,36.527c-5.555-24.37,6.078-26.548-1.051-41.755c-3.928-8.372-9.691-9.807-16.592-14.821
						c-0.433-0.313-0.851-0.655-1.268-1.016c-2.29-1.948-4.293-4.502-5.417-7.241c-0.931-2.234-4.998-10.199-5.158-10.343
						c0,0,1.163-1.545,3.365-3.549c0.128-0.111,0.254-0.231,0.382-0.352c7.081,4.766,9.032,14.703,16.188,20.018
						c8.923,6.613,23.406,7.327,32.984,1.569c2.03-1.223,4.034-2.743,5.865-4.501
						C1024.58,173.187,1025.025,177.972,1024.796,182.655z"/>
					<g>
						<path style="fill:#FFB278;" d="M1017.228,223.523c-0.345-5.059-5.011-9.291-9.863-7.367
							c-14.228,5.644-9.926,18.568-9.926,18.568c0.814,5.043,8.654,4.654,12.015,2.695
							C1013.714,234.935,1017.562,228.408,1017.228,223.523z"/>
						<path style="fill:#E5804E;" d="M1005.162,221.323c-1.508,2.39-4.176,7.747-4.176,7.747c-0.465,4.06,7.839,2.964,8.147-1.853
							c0.138-2.153-2.196-3.926,0.405-5.459c1.79-1.055,3.635,0.236,4.568,1.795
							C1014.458,218.947,1007.532,217.565,1005.162,221.323z"/>
					</g>
				</g>
				<path style="fill:#7F7D1F;" d="M902.789,516.77c-5.652,10.864,129.692,25.38,130.583,16.906
					c2.261-21.379-16.001-48.841-19.782-68.831c-7.431-39.28,14.67-68.547,27.003-102.426c4.555-12.517,16.288-28.984,16.059-42.179
					c-5.185,8.612-9.745,18.776-14.515,25.87c-11.008,16.349-26.631,31.555-43.049,42.634c-18.574,12.523-37.045,12.228-58.14,7.772
					c-9.734-2.06-26.579-5.436-35.98-13.345c3.557,9.853,8.896,16.763,12.229,29.836c4.464,17.542,8.574,50.184,1.356,67.225
					C911.284,497.385,911.461,500.105,902.789,516.77z"/>
				<path style="fill:#7F7D1F;" d="M965.369,297.592c0.024,0.033,0.057,0.057,0.082,0.09c4.488,4.962,6.945,11.08,10.023,16.738
					c1.228,2.26,2.556,4.455,4.16,6.461c7.173-2.907,15.879-8.083,21.619-13.446c4.087-3.816,7.911-7.706,11.554-11.874
					c1.916-2.186,6.494-6.199,6.462-8.598l-18.835-15.15c-0.622,4.545-25.902,25.828-33.984,25.795h-0.049
					c-0.131,0-0.262,0-0.393-0.008C965.794,297.6,965.582,297.592,965.369,297.592z"/>
				<path style="fill:#7F7D1F;" d="M951.71,314.805c0.237-2.236,9.859-16.525,13.741-17.123c0.312-0.049,0.63-0.074,0.95-0.074
					h-0.36c-0.008,0-0.024-0.008-0.034-0.008c-7.213-1.818-10.972-23.134-11.021-23.331
					C948.844,274.27,947.796,310.694,951.71,314.805z"/>
				<g>
					<g>
						<path style="fill:#7F7D1F;" d="M965.228,317.23c0.005,1.055,0.864,1.907,1.918,1.903c1.056-0.004,1.908-0.863,1.903-1.918
							c-0.003-1.055-0.862-1.907-1.918-1.903C966.076,315.315,965.224,316.175,965.228,317.23z"/>
						<path style="fill:#7F7D1F;" d="M956.892,348.655c0.005,1.056,0.864,1.908,1.919,1.903s1.906-0.863,1.903-1.918
							c-0.005-1.055-0.864-1.907-1.919-1.903C957.742,346.74,956.889,347.6,956.892,348.655z"/>
					</g>
					<path style="fill:#7F7D1F;" d="M949.383,381.714c0.005,1.055,0.864,1.907,1.919,1.903c1.054-0.004,1.906-0.864,1.903-1.919
						c-0.005-1.055-0.864-1.907-1.919-1.903C950.231,379.8,949.38,380.659,949.383,381.714z"/>
				</g>
				<path style="fill:#7F7D1F;" d="M943.529,411l1.622-0.221c-3.063-22.468,12.557-101.829,20.32-111.43
					c0.504-0.624,0.757-0.65,0.768-0.651l-0.123-1.633c-0.648,0.049-1.276,0.459-1.919,1.254
					C956.321,308.059,940.436,388.319,943.529,411z"/>
			</g>
			<g>
				<path style="fill:#AFAF2B;" d="M1026.65,307.129l3.104-10.135c26.19,3.199,30.449,23.463,34.206,41.425
					c4.845,23.163,4.875,45.318,4.123,68.989c-0.199,6.255-0.055,12.597-2.452,18.428c-3.372,12.895-9.212,16.686-17.293,16.716
					c-7.982,0.03-20.471,3.275-27.023-11.465C1016.948,398.878,1016.518,325.624,1026.65,307.129z"/>
				<path style="fill:#7F7D1F;" d="M1030.324,390.143l40.944,10.646c3.536,1.949,0.725,25.289-2.459,30.296
					c-5.195,8.168-16.746,14.565-26.201,12.487C1017.26,438.003,1023.383,406.396,1030.324,390.143z"/>
				<g>
					<path style="fill:#FFB278;" d="M1041.988,295.879c0.196-0.028,0.386-0.049,0.581-0.076c0.214,0.397,0.493,0.764,0.649,1.215
						c5.564,16.1,33.489,88.173,30.631,116.949c0,0-1.383,9.214-2.753,11.959c-3.538,7.084-14.013,12.304-23.774,13.04
						c-13.996,1.056-18.265-15.639-19.944-27.73c-5.166-37.176,2.318-75.493-0.827-112.529
						C1031.671,297.637,1036.808,296.636,1041.988,295.879z"/>
					<g>
						<path style="fill:#FFB278;" d="M1022.277,264.498c5.761-7.595,14.929-2.796,19.479-11.295
							c1.255-2.344,5.372-26.446,8.677-24.38c2.35,1.469-1.938,31.609-2.709,37.529c-1.072,8.22-6.381,25.692-3.075,35.61
							l-16.942,4.132c-0.126-5.285-0.889-9.413-2.469-13.835C1023.413,287.154,1020.272,267.144,1022.277,264.498z"/>
						<path style="fill:#FFB278;" d="M1017.057,260.319c0.387-2.395,0.803-6.492,3.215-7.941c2.577-1.55,6.292,0.172,7.456,2.745
							c-0.345-6.847,6.081-9.234,7.818-2.076c0.827-2.523,3.245-7.71,6.324-4.501c1.679,1.751,1.217,10.618,1.126,12.095
							l-19.007,7.851c-5.368-1.367-0.302,7.711-3.719,9.957C1015.122,274.816,1016.221,265.473,1017.057,260.319z"/>
						<path style="fill:#FFB278;" d="M1056.249,256.964c1.336,3.193-1.142,6.626-2.622,9.471c-1.76,3.383-2.047,5.46-2.758,9.081
							c-1.359,6.927-6.792,12.547-8.698,19.008l-1.24-16.942C1042.634,271.459,1048.959,258.916,1056.249,256.964z"/>
					</g>
				</g>
			</g>
		</g>
	</g>
	<g>
		<path style="fill:#E54A6E;" d="M769.916,596.26v18.016c0,4.52,3.669,8.189,8.189,8.189h270.234c4.521,0,8.189-3.669,8.189-8.189
			V596.26c0-4.528-3.668-8.189-8.189-8.189H778.105C773.585,588.071,769.916,591.731,769.916,596.26z"/>
		<path style="fill:#1E141A;" d="M831.648,511.435c13.032-11.636,85.309-27.698,87.027-37.053c0,0,15.839-6.444,36.311-5.625
			c29.503,1.18,62.593,9.753,62.593,9.753c10.617,19.619,25.326,31.55,29.504,55.345c3.188,18.153,2.096,37.477-11.74,50.945
			c-29.479,28.695-172.507,16.423-190.089,10.886C827.267,590.021,797.256,542.142,831.648,511.435z"/>
		<path style="fill:#E54A6E;" d="M1001.744,621.424c-0.106,0.36-0.237,0.688-0.344,1.04h91.585
			c20.8-9.254,38.021-23.584,46.677-46.055c3.546-9.22,5.052-19.268,5.2-29.628c-0.32-22.478-6.6-46.12-11.956-65.757
			c-5.568-20.44-11.227-39.283-16.927-56.586c-1.859,7.87-4.537,15.51-8.926,22.757c-3.186,5.266-6.781,10.031-11.227,14.036
			c-13.913,16.108-57.314,8.484-76.836,17.262c-33.666,15.133-15.157,59.304-15.477,91.904c-0.057,5.388,0.205,11.456,0.401,17.672
			C1004.282,599.788,1004.406,612.056,1001.744,621.424z"/>
		<g>
			<path style="fill:#FFB278;" d="M895.611,785.26c6.366-61.2,10.422-245.012,24.86-266.108
				c27.941-40.825,33.336,21.257,37.269,41.514c17.787,91.614-41.223,180.69-52.537,224.593H895.611z"/>
			<path style="fill:#FFB278;" d="M886.087,785.26h-9.492c-11.109-61.923-59.477-238.625-47.971-261.345
				c17.763-35.079,34.293,4.804,43.556,23.126C914.524,630.786,884.145,740.318,886.087,785.26z"/>
			<path style="fill:#FFFFFF;" d="M895.206,784.441h10.646c4.515,4.003,7.37,9.827,11.464,18.016
				c7.215,0.42-18.016,0.409-25.315,0.338C891.857,797.319,893.569,788.535,895.206,784.441z"/>
			<path style="fill:#FFFFFF;" d="M886.415,784.441h-10.318c-4.376,4.003-14.182,9.417-18.15,17.606
				c-6.994,0.42,24.5,0.819,31.574,0.748C889.661,797.319,888.003,788.535,886.415,784.441z"/>
		</g>
	</g>
</g>
</svg>
