<?xml version="1.0" encoding="utf-8"?>
<!-- Generator: Adobe Illustrator 27.5.0, SVG Export Plug-In . SVG Version: 6.00 Build 0)  -->
<svg version="1.1" id="Capa_1" xmlns="http://www.w3.org/2000/svg" xmlns:xlink="http://www.w3.org/1999/xlink" x="0px" y="0px"
	 viewBox="0 0 361.552 425.197" style="enable-background:new 0 0 361.552 425.197;" xml:space="preserve">
<rect x="0" y="0" style="fill:#EDF8FC;" width="361.552" height="425.197"/>
<ellipse style="fill:#DADADA;" cx="180.153" cy="382.457" rx="62.281" ry="14.354"/>
<g>
	<g>
		<path style="fill:#F9BB8D;" d="M214.224,127.294c0,0,0.232,0.271,0.667,0.78c0.217,0.255,0.485,0.569,0.801,0.938
			c0.327,0.396,0.64,0.71,1.151,1.416c0.94,1.269,2.188,2.879,3.15,4.572c0.525,0.862,1.102,1.772,1.588,2.773
			c0.493,0.996,1.092,2.022,1.555,3.132c0.469,1.108,1.014,2.25,1.461,3.454c0.429,1.207,0.927,2.444,1.327,3.731
			c0.819,2.571,1.566,5.291,2.162,8.108c0.291,1.409,0.604,2.839,0.82,4.288c0.119,0.724,0.239,1.452,0.359,2.184
			c0.096,0.731,0.191,1.466,0.288,2.204c0.395,2.95,0.626,5.938,0.808,8.917c0.083,1.489,0.124,2.975,0.18,4.455
			c0.012,1.477,0.056,2.948,0.039,4.403c-0.019,2.91-0.085,5.766-0.242,8.517c-0.279,5.505-0.787,10.602-1.343,14.952
			c-0.553,4.35-1.14,7.953-1.602,10.479c-0.243,1.268-0.434,2.263-0.564,2.942c-0.147,0.706-0.225,1.083-0.225,1.083l-8.426-1.575
			c0,0,0.044-0.327,0.125-0.939c0.076-0.644,0.188-1.587,0.329-2.788c0.265-2.416,0.577-5.896,0.806-10.075
			c0.232-4.178,0.364-9.06,0.254-14.259c-0.038-2.601-0.171-5.278-0.347-7.985c-0.081-1.355-0.222-2.711-0.33-4.075
			c-0.15-1.357-0.286-2.721-0.46-4.075c-0.363-2.704-0.766-5.394-1.307-7.986c-0.132-0.648-0.264-1.294-0.395-1.937
			c-0.152-0.634-0.305-1.264-0.455-1.891c-0.28-1.262-0.643-2.469-0.978-3.662c-0.685-2.38-1.479-4.605-2.299-6.658
			c-0.401-1.032-0.877-1.978-1.284-2.922c-0.423-0.935-0.916-1.771-1.337-2.61c-0.417-0.843-0.93-1.552-1.35-2.279
			c-0.414-0.735-0.889-1.35-1.313-1.945c-0.854-1.281-1.575-1.99-2.141-2.714c-0.217-0.311-0.714-0.771-1.029-1.102
			c-0.341-0.345-0.631-0.639-0.866-0.877c-0.47-0.477-0.721-0.731-0.721-0.731L214.224,127.294z"/>
	</g>
	<g>
		<path style="fill:#F9BB8D;" d="M158.754,137.538c0,0-0.251,0.254-0.722,0.73c-0.235,0.238-0.525,0.532-0.866,0.878
			c-0.315,0.33-0.812,0.791-1.03,1.102c-0.565,0.724-1.287,1.432-2.14,2.713c-0.424,0.595-0.9,1.21-1.314,1.945
			c-0.419,0.728-0.933,1.436-1.349,2.28c-0.421,0.839-0.913,1.676-1.337,2.61c-0.407,0.945-0.883,1.89-1.284,2.922
			c-0.819,2.053-1.613,4.278-2.299,6.658c-0.335,1.193-0.698,2.4-0.977,3.662c-0.151,0.626-0.303,1.257-0.456,1.891
			c-0.131,0.643-0.262,1.289-0.394,1.937c-0.542,2.592-0.944,5.283-1.307,7.986c-0.174,1.354-0.309,2.718-0.46,4.075
			c-0.107,1.364-0.249,2.72-0.33,4.075c-0.176,2.707-0.309,5.384-0.346,7.985c-0.109,5.2,0.023,10.081,0.256,14.259
			c0.229,4.179,0.542,7.659,0.807,10.075c0.142,1.201,0.253,2.144,0.329,2.787c0.082,0.613,0.125,0.939,0.125,0.939l-8.425,1.576
			c0,0-0.079-0.376-0.226-1.083c-0.13-0.679-0.321-1.675-0.564-2.942c-0.462-2.526-1.05-6.128-1.604-10.479
			c-0.557-4.349-1.065-9.446-1.345-14.952c-0.158-2.751-0.223-5.607-0.243-8.517c-0.018-1.455,0.026-2.927,0.039-4.403
			c0.055-1.479,0.096-2.965,0.18-4.454c0.181-2.979,0.413-5.967,0.807-8.917c0.096-0.738,0.191-1.473,0.287-2.204
			c0.12-0.732,0.24-1.461,0.359-2.184c0.217-1.45,0.529-2.879,0.82-4.289c0.596-2.817,1.343-5.538,2.162-8.108
			c0.399-1.287,0.898-2.525,1.327-3.731c0.447-1.203,0.992-2.346,1.461-3.454c0.463-1.111,1.063-2.137,1.555-3.133
			c0.485-1,1.063-1.911,1.588-2.773c0.962-1.693,2.21-3.303,3.15-4.572c0.512-0.707,0.824-1.021,1.151-1.417
			c0.315-0.369,0.584-0.683,0.801-0.938c0.435-0.509,0.666-0.781,0.666-0.781L158.754,137.538z"/>
	</g>
	<g>
		<path style="fill:#F9BB8D;" d="M201.162,234.985c0,0,0.146,0.476,0.422,1.368c0.138,0.448,0.309,1.001,0.509,1.65
			c0.221,0.826,0.474,1.774,0.758,2.837c0.129,0.515,0.305,1.126,0.411,1.641c0.111,0.524,0.227,1.073,0.349,1.645
			c0.244,1.144,0.51,2.383,0.719,3.669c0.477,2.601,0.906,5.483,1.306,8.602c0.397,3.117,0.756,6.466,1.064,9.987
			c0.313,3.522,0.586,7.217,0.806,11.024c0.236,3.811,0.411,7.732,0.559,11.711c0.152,3.979,0.255,8.011,0.338,12.04
			c0.318,16.109,0.113,32.134-0.17,44.148c-0.141,6.006-0.308,11.009-0.435,14.515c-0.14,3.518-0.22,5.529-0.22,5.529h-11.43
			c0,0-0.105-1.969-0.29-5.413c-0.197-3.458-0.494-8.402-0.909-14.331c-0.828-11.854-2.107-27.652-3.885-43.309
			c-0.448-3.913-0.915-7.818-1.421-11.646c-0.503-3.828-1.024-7.585-1.59-11.192c-0.549-3.614-1.136-7.08-1.734-10.337
			c-0.596-3.258-1.215-6.302-1.834-9.067c-0.621-2.762-1.236-5.252-1.838-7.379c-0.281-1.09-0.588-2.047-0.868-2.935
			c-0.139-0.444-0.271-0.871-0.398-1.279c-0.127-0.418-0.247-0.676-0.359-0.998c-0.217-0.604-0.412-1.145-0.58-1.614
			c-0.258-0.622-0.477-1.152-0.654-1.582c-0.358-0.862-0.549-1.322-0.549-1.322L201.162,234.985z"/>
	</g>
	<path style="fill:#683C11;" d="M227.119,381.19c-10.772-3.278-14.99-16.372-17.653-17.393c-1.778-0.683-1.732,1.688-5.196,1.555
		c-4.012-0.154-8.238-2.455-8.238-2.455s-4.287,0.533-0.591,4.526c-3.297,3.735-3.163,9.864,0.591,11.977
		c3.412,1.06,7.849,6.559,15.142,9.606C222.231,393.626,232.954,382.965,227.119,381.19z"/>
	<path style="fill:#432918;" d="M212.2,218.743c-3.664-19.003-45.316,14.811-35.32,21.272c9.994,6.46,17.884,119.95,17.884,119.95
		h13.889C208.652,359.965,215.872,237.748,212.2,218.743z"/>
	<g>
		<path style="fill:#F9BB8D;" d="M180.738,242.948c0,0-0.191,0.46-0.549,1.322c-0.178,0.43-0.396,0.96-0.654,1.582
			c-0.169,0.47-0.363,1.01-0.581,1.614c-0.111,0.321-0.232,0.58-0.359,0.998c-0.126,0.408-0.259,0.834-0.398,1.279
			c-0.279,0.888-0.586,1.845-0.868,2.935c-0.602,2.128-1.218,4.618-1.838,7.379c-0.619,2.765-1.238,5.809-1.834,9.067
			c-0.599,3.257-1.186,6.723-1.734,10.337c-0.565,3.607-1.087,7.364-1.59,11.192c-0.507,3.827-0.973,7.733-1.421,11.646
			c-1.779,15.657-3.057,31.455-3.885,43.309c-0.415,5.928-0.712,10.873-0.909,14.331c-0.184,3.444-0.29,5.413-0.29,5.413h-11.43
			c0,0-0.08-2.011-0.22-5.529c-0.128-3.505-0.294-8.508-0.435-14.515c-0.283-12.014-0.488-28.039-0.17-44.148
			c0.083-4.028,0.186-8.061,0.338-12.04c0.148-3.979,0.323-7.9,0.559-11.711c0.219-3.808,0.493-7.503,0.806-11.024
			c0.308-3.52,0.667-6.87,1.064-9.987c0.4-3.119,0.83-6.001,1.306-8.602c0.209-1.286,0.475-2.525,0.719-3.669
			c0.121-0.572,0.238-1.121,0.349-1.645c0.106-0.515,0.282-1.126,0.411-1.641c0.284-1.063,0.538-2.011,0.758-2.837
			c0.2-0.649,0.371-1.202,0.509-1.65c0.276-0.892,0.422-1.368,0.422-1.368L180.738,242.948z"/>
	</g>
	<path style="fill:#432918;" d="M147.467,218.743c3.669-19.003,45.63,14.811,35.636,21.272c-9.996,6.46-17.573,119.95-17.573,119.95
		l-14.56-1.066C150.971,358.899,143.797,237.748,147.467,218.743z"/>
	<path style="fill:#683C11;" d="M216.547,68.087c0,23.554-20.935,37.39-38.108,37.39c-17.17,0-39.457-13.835-39.457-37.39
		c0-10.397-2.682-21.249,4.732-29.776c1.057-1.216,5.875-3.276,5.875-3.276s0.472-3.308,1.959-4.489
		c6.059-4.811,19.157-6.626,29.317-6.626c13.424,0,22.884,1.389,29.756,9.561C217.492,41.655,216.547,61.92,216.547,68.087z"/>
	<polygon style="fill:#EEAD7F;" points="189.186,116.485 186.788,105.449 172.663,105.449 169.999,116.485 160.326,118.674 
		160.326,138.512 197.516,138.512 197.516,118.674 	"/>
	<path style="fill:#432918;" d="M212.273,220.285c0,20.719-14.521,24.575-32.435,24.575c-17.917,0-32.438,0-32.438-24.575
		c0-13.574,14.521-24.576,32.438-24.576C197.752,195.708,212.273,206.71,212.273,220.285z"/>
	<path style="fill:#95A63A;" d="M213.965,213.823l-4.321-92.211l-17.658-5.127c0,0-0.347,12.222-12.881,12.222
		c-12.525,0-11.986-12.222-11.986-12.222l-16.951,5.327l-4.516,92.011c0,0,13.35,8.077,34.159,8.077
		C200.612,221.9,213.965,213.823,213.965,213.823z"/>
	<path style="fill:#6F923A;" d="M196.708,117.857l-4.723-1.372c0,0-0.347,12.222-12.881,12.222
		c-12.525,0-11.986-12.222-11.986-12.222l-4.236,1.332c0,0-1.166,15.466,16.04,15.466
		C195.905,133.283,196.708,117.857,196.708,117.857z"/>
	<path style="fill:#6F923A;" d="M227.875,147.129c-4.618-11.758-11.317-24.226-17.102-25.417c-9.01-1.857-5.274,21.235-5.274,21.235
		s3.138,12.303,7.212,20.424C218.675,166.554,227.875,161.44,227.875,147.129z"/>
	<path style="fill:#F9BB8D;" d="M210.27,75.34c0,30.109-21.759,38.454-31.555,38.454c-9.795,0-32.678-8.344-32.678-38.454
		c0-24.227,10.042-43.869,31.94-43.869C199.872,31.471,210.27,51.112,210.27,75.34z"/>
	<g>
		<path style="fill:#FFFFFF;" d="M189.169,91.829c-1.953,7.198-4.285,9.73-10.273,9.73c-5.996,0-8.701-3.864-9.856-9.709
			L189.169,91.829z"/>
	</g>
	<path style="fill:#683C11;" d="M177.667,30.547c-23.431,0-34.637,16.088-35.411,36.375c3.524,0.714,3.664,6.451,3.831,7.766
		l3.328,0.146c0,0,2.033-2.127,1.56-8.062c-0.496-6.213-1.87-12.55,4.027-15.894c3.934-2.232,3.165,0.114,22.639,3.645
		c19.474,3.53,26.711,13.53,26.711,13.53v10.611l5.522-3.975c0.167-1.315,1.12-1.93,4.641-2.645
		C213.743,51.756,201.095,30.547,177.667,30.547z"/>
	<g>
		<path style="fill:#F9BB8D;" d="M218.135,222.525c-0.171,5.105,2.257,9.323,5.421,9.429c2.509,0.083,5.963-0.296,6.032-3.445
			c0.064-3.148-2.561-11.1-2.525-12.153c0.173-5.094,0.278-2.767-2.89-2.873C221.013,213.376,218.302,217.43,218.135,222.525z"/>
		<path style="fill:#F9BB8D;" d="M215.987,220.274c-1.229,3-0.633,6.363-1.749,10.861c-0.516,2.075,0.1,2.083,0.91,2.111
			c0.587,0.02,2.421,0.524,2.66-1.023c0.689-4.546,4.849-9.659,4.918-11.701c0.096-2.792,2.851-6.903,0.687-6.977
			C221.254,213.477,218.282,214.665,215.987,220.274z"/>
		<path style="fill:#F9BB8D;" d="M225.485,237.882c0.281,4.626,1.936,4.81,2.84,4.755c0.907-0.056,0.716-0.33,0.433-4.956
			c-0.276-4.625-3.381-16.389-4.28-16.333C223.569,221.405,225.202,233.257,225.485,237.882z"/>
		<path style="fill:#F9BB8D;" d="M228.785,237.042c0.575,3.547,1.17,3.675,1.863,3.564c0.697-0.113,1.224-0.421,0.649-3.971
			c-0.57-3.55-2.682-13.06-3.372-12.95C227.232,223.798,228.21,233.492,228.785,237.042z"/>
		<path style="fill:#F9BB8D;" d="M221.944,239.63c0.068,4.986,1.838,5.267,2.816,5.255c0.975-0.015,0.785-0.319,0.716-5.303
			c-0.066-4.986-2.872-18.439-3.849-18.426C220.651,221.17,221.875,234.644,221.944,239.63z"/>
		<path style="fill:#F9BB8D;" d="M218.115,237.149c-0.171,4.984,1.586,5.35,2.561,5.382c0.979,0.034,0.804-0.279,0.968-5.263
			c0.169-4.984-0.168-18.491-1.143-18.525C219.526,218.712,218.282,232.167,218.115,237.149z"/>
	</g>
	<g>
		<path style="fill:#F9BB8D;" d="M143.1,222.525c0.17,5.105-2.257,9.323-5.422,9.429c-2.509,0.083-5.963-0.296-6.031-3.445
			c-0.064-3.148,2.561-11.1,2.525-12.153c-0.173-5.094-0.279-2.767,2.89-2.873C140.223,213.376,142.933,217.43,143.1,222.525z"/>
		<path style="fill:#F9BB8D;" d="M145.249,220.274c1.228,3,0.633,6.363,1.749,10.861c0.516,2.075-0.101,2.083-0.91,2.111
			c-0.587,0.02-2.421,0.524-2.661-1.023c-0.689-4.546-4.849-9.659-4.917-11.701c-0.096-2.792-2.851-6.903-0.688-6.977
			C139.981,213.477,142.954,214.665,145.249,220.274z"/>
		<path style="fill:#F9BB8D;" d="M135.75,237.882c-0.281,4.626-1.936,4.81-2.84,4.755c-0.908-0.056-0.716-0.33-0.433-4.956
			c0.277-4.625,3.381-16.389,4.281-16.333C137.665,221.405,136.034,233.257,135.75,237.882z"/>
		<path style="fill:#F9BB8D;" d="M132.45,237.042c-0.575,3.547-1.17,3.675-1.863,3.564c-0.698-0.113-1.225-0.421-0.65-3.971
			c0.571-3.55,2.682-13.06,3.372-12.95C134.003,223.798,133.025,233.492,132.45,237.042z"/>
		<path style="fill:#F9BB8D;" d="M139.292,239.63c-0.068,4.986-1.838,5.267-2.817,5.255c-0.974-0.015-0.785-0.319-0.716-5.303
			c0.067-4.986,2.873-18.439,3.849-18.426C140.584,221.17,139.361,234.644,139.292,239.63z"/>
		<path style="fill:#F9BB8D;" d="M143.121,237.149c0.171,4.984-1.587,5.35-2.561,5.382c-0.978,0.034-0.803-0.279-0.968-5.263
			c-0.168-4.984,0.169-18.491,1.144-18.525C141.709,218.712,142.954,232.167,143.121,237.149z"/>
	</g>
	<path style="fill:#6F923A;" d="M133.962,147.129c4.614-11.758,11.317-24.226,17.097-25.417c9.015-1.857,4.686,22.896,4.686,22.896
		s-2.55,10.642-6.623,18.762C143.165,166.554,133.962,161.44,133.962,147.129z"/>
	<path style="fill:#BED7E6;" d="M169.508,173.583c0,0,5.751-8.889,11.231-9.331c5.477-0.441,10.37,3.449,10.37,3.449
		s-5.743,0.228-10.987,1.47C174.878,170.415,169.508,173.583,169.508,173.583z"/>
	<path style="fill:#683C11;" d="M133.177,381.19c10.774-3.278,14.99-16.372,17.653-17.393c1.779-0.683,1.732,1.688,5.197,1.555
		c4.014-0.154,8.24-2.455,8.24-2.455s4.285,0.533,0.589,4.526c3.296,3.735,3.162,9.864-0.589,11.977
		c-3.413,1.06-7.852,6.559-15.142,9.606C138.065,393.626,127.341,382.965,133.177,381.19z"/>
	<path style="fill:#F9BB8D;" d="M151.548,78.662c0,4.542-0.75,9.075-3.345,9.075c-2.599,0-7.169-2.567-8.68-8.172
		c-2.338-8.666,3.958-11.514,6.556-11.514C148.677,68.051,151.548,74.118,151.548,78.662z"/>
	<path style="fill:#F9BB8D;" d="M204.352,78.662c0,4.542,0.748,9.075,3.347,9.075c2.598,0,7.168-2.567,8.68-8.172
		c2.337-8.666-3.96-11.514-6.558-11.514C207.223,68.051,204.352,74.118,204.352,78.662z"/>
	<path style="fill:#E5A77A;" d="M180.837,80.629c-0.823-0.605-2.567-2.63-2.047-7.732c-0.958,6.175,0.563,7.393,1.583,8.389
		c1.104,1.077,1.623,1.558,1.623,2.746c0,1.697-1.345,3.074-3.019,3.121c0.231,0.055,0.471,0.09,0.72,0.09
		c1.76,0,3.544-1.832,3.544-3.605C183.242,81.863,182.091,81.556,180.837,80.629z"/>
	<path style="fill:#683C11;" d="M192.136,72.6c0,2.11-1.052,3.82-2.35,3.82c-1.296,0-2.348-1.709-2.348-3.82
		c0-2.109,1.052-3.82,2.348-3.82C191.084,68.78,192.136,70.491,192.136,72.6z"/>
	<path style="fill:#683C11;" d="M168.664,72.6c0,2.11-1.051,3.82-2.35,3.82c-1.296,0-2.348-1.709-2.348-3.82
		c0-2.109,1.052-3.82,2.348-3.82C167.613,68.78,168.664,70.491,168.664,72.6z"/>
	<g>
		<path style="fill:#683C11;" d="M157.145,65.389c0,0,0.444-0.757,1.316-1.749c0.434-0.497,0.972-1.061,1.629-1.591
			c0.646-0.545,1.422-1.04,2.278-1.437c0.424-0.203,0.886-0.356,1.338-0.523c0.476-0.094,0.948-0.259,1.429-0.214
			c0.477,0.03,0.941,0.058,1.347,0.245c0.412,0.151,0.793,0.297,1.084,0.542c0.302,0.218,0.567,0.429,0.774,0.633
			c0.186,0.234,0.336,0.442,0.449,0.62c0.229,0.352,0.32,0.569,0.32,0.569l-0.137,0.155c0,0-0.253-0.037-0.627-0.131
			c-0.189-0.045-0.404-0.108-0.638-0.184c-0.245-0.053-0.524-0.077-0.796-0.145c-0.268-0.089-0.58-0.064-0.878-0.105
			c-0.297-0.06-0.617-0.021-0.941-0.048c-0.322-0.059-0.671,0.009-1.035-0.034c-0.361,0.039-0.746,0.062-1.118,0.171
			c-0.749,0.204-1.489,0.531-2.169,0.891c-0.678,0.363-1.298,0.759-1.812,1.128c-1.024,0.748-1.652,1.336-1.652,1.336
			L157.145,65.389z"/>
	</g>
	<g>
		<path style="fill:#683C11;" d="M198.88,65.52c0,0-0.628-0.588-1.652-1.336c-0.514-0.369-1.134-0.765-1.813-1.128
			c-0.68-0.36-1.42-0.688-2.169-0.891c-0.372-0.109-0.757-0.132-1.119-0.171c-0.364,0.042-0.713-0.025-1.035,0.034
			c-0.323,0.027-0.643-0.012-0.94,0.048c-0.299,0.041-0.611,0.016-0.879,0.105c-0.272,0.068-0.552,0.092-0.797,0.145
			c-0.233,0.076-0.449,0.139-0.638,0.184c-0.374,0.094-0.627,0.131-0.627,0.131l-0.137-0.155c0,0,0.091-0.218,0.32-0.569
			c0.112-0.178,0.263-0.386,0.449-0.62c0.207-0.205,0.471-0.415,0.773-0.633c0.291-0.245,0.673-0.392,1.084-0.543
			c0.406-0.186,0.871-0.214,1.348-0.245c0.481-0.044,0.953,0.12,1.429,0.214c0.452,0.167,0.914,0.32,1.338,0.523
			c0.857,0.396,1.633,0.891,2.279,1.437c0.657,0.53,1.195,1.093,1.629,1.591c0.872,0.991,1.316,1.749,1.316,1.749L198.88,65.52z"/>
	</g>
	<g>
		<path style="fill:#352E35;" d="M170.403,114.805c0,0-0.275,0.068-0.79,0.196c-0.257,0.066-0.538,0.24-0.883,0.39
			c-0.169,0.082-0.324,0.224-0.504,0.344c-0.176,0.127-0.374,0.247-0.537,0.432c-0.747,0.632-1.411,1.645-2.03,2.85
			c-0.62,1.213-1.121,2.679-1.575,4.297c-0.923,3.242-1.457,7.164-1.897,11.364c-0.431,4.206-0.674,8.719-0.797,13.235
			c-0.173,4.515-0.244,9.038-0.257,13.278c-0.01,4.242-0.019,8.202-0.026,11.596c-0.012,6.792-0.02,11.32-0.02,11.32
			s-0.07-1.13-0.191-3.108c-0.096-1.979-0.276-4.805-0.389-8.2c-0.11-3.395-0.271-7.357-0.298-11.605
			c-0.031-4.248-0.013-8.781,0.118-13.316c0.172-4.532,0.464-9.064,0.943-13.299c0.235-2.118,0.544-4.157,0.924-6.077
			c0.368-1.921,0.797-3.726,1.318-5.358c0.503-1.635,1.096-3.103,1.8-4.313c0.7-1.204,1.436-2.206,2.243-2.82
			c0.376-0.331,0.783-0.543,1.119-0.732c0.37-0.132,0.668-0.285,0.928-0.333C170.124,114.854,170.403,114.805,170.403,114.805z"/>
	</g>
	<g>
		<path style="fill:#352E35;" d="M188.82,114.805c-0.003,0.02,0.283-0.105,0.801,0.059c0.508,0.179,1.132,0.712,1.673,1.543
			c1.097,1.659,2.128,4.316,3.015,7.568c0.879,3.257,1.721,7.104,2.397,11.259c0.677,4.155,1.267,8.604,1.768,13.063
			c0.458,4.463,0.82,8.934,1.109,13.128c0.294,4.194,0.425,8.117,0.551,11.476c0.123,3.36,0.126,6.163,0.151,8.123
			c-0.002,1.961-0.004,3.082-0.004,3.082s-0.299-4.47-0.747-11.175c-0.213-3.352-0.545-7.255-0.873-11.438
			c-0.333-4.182-0.747-8.638-1.246-13.083c-0.451-4.45-0.992-8.89-1.621-13.033c-0.632-4.141-1.276-8-2.064-11.254
			c-0.786-3.246-1.608-5.935-2.61-7.605c-0.491-0.834-1.039-1.394-1.52-1.601C189.116,114.724,188.815,114.823,188.82,114.805z"/>
	</g>
	<g>
		<path style="fill:#8A8989;" d="M194.499,173.476v-0.752c0-0.996-0.785-1.804-1.753-1.804h-2.872c-0.967,0-1.751,0.808-1.751,1.804
			v0.752H194.499z"/>
		<rect x="187.584" y="172.784" style="fill:#9D9D9C;" width="7.085" height="2.043"/>
		<path style="fill:#B2B2B2;" d="M198.997,197.575c0,1.935-1.569,3.503-3.503,3.503H164.99c-1.935,0-3.503-1.568-3.503-3.503V177.31
			c0-1.936,1.568-3.504,3.503-3.504h30.504c1.934,0,3.503,1.568,3.503,3.504V197.575z"/>
		<rect x="161.487" y="177.31" style="fill:#9D9D9C;" width="37.511" height="20.265"/>
		
			<ellipse transform="matrix(0.0125 -0.9999 0.9999 0.0125 -4.5606 371.218)" style="fill:#878787;" cx="185.663" cy="187.918" rx="11.348" ry="11.349"/>
		
			<ellipse transform="matrix(0.025 -0.9997 0.9997 0.025 -6.8337 368.8294)" style="fill:#878787;" cx="185.663" cy="187.918" rx="9.006" ry="9.006"/>
		<path style="fill:#878787;" d="M193.598,187.918c0,4.382-3.553,7.934-7.935,7.934c-4.382,0-7.934-3.552-7.934-7.934
			c0-4.382,3.552-7.934,7.934-7.934C190.045,179.984,193.598,183.536,193.598,187.918z"/>
		<path style="fill:#259CC6;" d="M192.526,187.918c0,3.79-3.073,6.862-6.863,6.862c-3.789,0-6.862-3.072-6.862-6.862
			c0-3.79,3.072-6.862,6.862-6.862C189.453,181.056,192.526,184.128,192.526,187.918z"/>
		<path style="fill:#FFFFFF;" d="M180.152,186.854c0-2.456,1.99-4.447,4.447-4.447C187.055,182.406,180.152,189.311,180.152,186.854
			z"/>
		<path style="fill:#B1C6D2;" d="M191.34,184.066c0.073,0.397,0.113,0.805,0.113,1.224c0,3.789-3.073,6.862-6.862,6.862
			c-2.361,0-4.443-1.193-5.678-3.01c0.577,3.205,3.379,5.637,6.749,5.637c3.79,0,6.863-3.072,6.863-6.862
			C192.526,186.489,192.088,185.163,191.34,184.066z"/>
		<path style="fill:#878787;" d="M172.524,173.805h-7.534c-1.935,0-3.503,1.568-3.503,3.504v20.265c0,1.935,1.568,3.503,3.503,3.503
			h7.534V173.805z"/>
		<path style="fill:#CECECE;" d="M172.524,177.47h-6.52c-1.676,0-3.034,1.358-3.034,3.034v17.541c0,1.675,1.358,3.033,3.034,3.033
			h6.52V177.47z"/>
		<rect x="198.997" y="180.296" style="fill:#B2B2B2;" width="2.044" height="7.622"/>
		<rect x="160.065" y="180.296" style="fill:#B2B2B2;" width="2.043" height="7.622"/>
		<path style="fill:#CECECE;" d="M169.91,182.583c0,1.435-1.163,2.598-2.599,2.598c-1.434,0-2.598-1.163-2.598-2.598
			c0-1.436,1.164-2.599,2.598-2.599C168.747,179.984,169.91,181.148,169.91,182.583z"/>
		<path style="fill:#CECECE;" d="M169.434,182.939c0,0.977-0.791,1.768-1.767,1.768c-0.975,0-1.767-0.791-1.767-1.768
			c0-0.975,0.792-1.766,1.767-1.766C168.643,181.173,169.434,181.964,169.434,182.939z"/>
		<path style="fill:#CECECE;" d="M168.484,189.637c0,0.451-0.365,0.816-0.816,0.816c-0.45,0-0.817-0.366-0.817-0.816
			c0-0.451,0.367-0.816,0.817-0.816C168.119,188.821,168.484,189.186,168.484,189.637z"/>
		<path style="fill:#CECECE;" d="M168.484,192.029c0,0.45-0.365,0.816-0.816,0.816c-0.45,0-0.817-0.366-0.817-0.816
			c0-0.452,0.367-0.817,0.817-0.817C168.119,191.212,168.484,191.578,168.484,192.029z"/>
	</g>
</g>
</svg>
