<?xml version="1.0" encoding="utf-8"?>
<!-- Generator: Adobe Illustrator 27.5.0, SVG Export Plug-In . SVG Version: 6.00 Build 0)  -->
<svg version="1.1" id="Capa_1" xmlns="http://www.w3.org/2000/svg" xmlns:xlink="http://www.w3.org/1999/xlink" x="0px" y="0px"
	 viewBox="0 0 340.444 425.197" style="enable-background:new 0 0 340.444 425.197;" xml:space="preserve">
<rect y="0" style="fill:#FCFCED;" width="340.444" height="425.197"/>
<path style="fill:#DADADA;" d="M223.205,394.73c0,5.12-24.418,9.27-54.538,9.27c-30.119,0-54.537-4.15-54.537-9.27
	c0-5.12,24.418-9.27,54.537-9.27C198.787,385.459,223.205,389.61,223.205,394.73z"/>
<g>
	<path style="fill:#2C0A00;" d="M162.806,383.139c0-3.639-13.694-1.259-13.694-1.259s-2.684,7.901-4.484,11.533
		c-1.615,3.261,1.372,7.78,6.041,6.773c3.186-0.686,5.695-4.332,8.787-9.611C161.098,387.771,162.806,387.738,162.806,383.139z"/>
	<path style="fill:#3C1308;" d="M162.806,381.583c0-3.64-13.694-1.259-13.694-1.259s-2.684,7.901-4.484,11.533
		c-1.615,3.261,1.372,7.78,6.041,6.774c3.186-0.687,5.695-4.333,8.787-9.612C161.098,386.215,162.806,386.182,162.806,381.583z"/>
	<path style="fill:#432918;" d="M186.977,84.198c-7.557,9.042-17.16,12.065-20.93,12.065c-3.85,0-14.262-2.65-22.026-12.065
		c-4.399-5.334-7.491-20.619-8.647-27.952c-0.664-4.21-1.203-13.152,1.749-17.637c4.635-7.042,13.312-11.991,27.808-11.991
		c5.483,0,13.199-0.183,14.119,3.464c7.409-0.26,11.162,3.584,12.992,6.879c2.669,4.803,3.663,11.534,2.977,17.941
		C194.115,63.357,191.508,78.775,186.977,84.198z"/>
	<path style="fill:#2F363A;" d="M168.095,238.478h2.925V191.12l-28.681,0.997c-3.66,2.818-5.128,27.635-5.124,37.643
		c0,22.81,9.516,151.823,9.516,151.823h18.107L168.095,238.478z"/>
	<path style="fill:#2C0A00;" d="M176.189,383.139c0-3.639,13.693-1.259,13.693-1.259s2.686,7.901,4.484,11.533
		c1.617,3.261-1.373,7.78-6.041,6.773c-3.184-0.686-5.693-4.332-8.787-9.611C177.896,387.771,176.189,387.738,176.189,383.139z"/>
	<path style="fill:#3C1308;" d="M176.189,381.583c0-3.64,13.693-1.259,13.693-1.259s2.686,7.901,4.484,11.533
		c1.617,3.261-1.373,7.78-6.041,6.774c-3.184-0.687-5.693-4.333-8.787-9.612C177.896,386.215,176.189,386.182,176.189,381.583z"/>
	<path style="fill:#2F363A;" d="M170.9,238.478h-2.924V191.12l28.681,0.997c3.66,2.818,5.124,27.635,5.124,37.643
		c0,22.81-9.52,151.823-9.52,151.823h-18.104L170.9,238.478z"/>
	<g>
		<path style="fill:#F9BB8D;" d="M216.623,206.26c-4.916,1.903-2.47,2.955-1.771,11.345c0.95,11.342-5.625,17.28-0.415,16.45
			c3.904-0.622,9.361-9.723,9.368-15.095c0.005-2.58-1.229-5.333-2.186-7.838c-2.021-5.275,0.145-9.569,0.145-9.569
			S217.318,205.988,216.623,206.26z"/>
		<path style="fill:#F9BB8D;" d="M214.598,207.277c-2.789,1.082-1.682,3.882-1.559,7.394c0.227,6.449-2.352,9.265,0.643,9.313
			c2.213,0.037,4.42-6.766,4.426-9.814C218.111,210.796,215.814,206.807,214.598,207.277z"/>
		<path style="fill:#DFA076;" d="M217.758,214.17c0.006-2.859,0.604,2.342,0.221,3.741c-0.809,2.967-2.309,6.097-3.813,6.073
			c-0.194-0.002-0.362-0.022-0.514-0.053C215.752,223.358,217.754,217.071,217.758,214.17z"/>
	</g>
	<path style="fill:#F9BB8D;" d="M141.656,67.112c0,0,0.9-7.001-5.17-5.289c-4.673,1.316,0.127,14.294,3.205,15.404
		c2.635,0.95,3.205-1.066,3.205-1.066L141.656,67.112z"/>
	<path style="fill:#F9BB8D;" d="M189.569,67.112c0,0-0.898-7.001,5.172-5.289c4.673,1.316-0.128,14.294-3.206,15.404
		c-2.634,0.95-3.204-1.066-3.204-1.066L189.569,67.112z"/>
	<path style="fill:#EDEDED;" d="M142.339,192.117c0,0,6.219,5.297,27.152,5.297s27.235-5.297,27.235-5.297
		c7.332-29.237,7.61-81.651,7.61-81.651s-12.708-5.572-20.009-7.323c-6.875-1.65-14.924-1.467-15.769-1.441
		c-0.837-0.026-8.89-0.209-15.765,1.441c-7.297,1.751-19.798,7.323-19.798,7.323S131.174,151.696,142.339,192.117z"/>
	<path style="fill:#EDEDED;" d="M173.791,181.386c-18.711,1.097-27.803-11.482-34.727-27.052c-1.713-3.852-3.528-8.032-5.174-12.382
		c1.147,14.503,3.543,32.411,8.448,50.164c0,0,6.219,5.297,27.152,5.297s27.235-5.297,27.235-5.297
		c1.689-6.738,3-14.709,4.024-22.986C194.309,176.055,185.559,180.696,173.791,181.386z"/>
	<path style="fill:#683C11;" d="M141.521,189.087c-0.61,1.191-0.928,3.855-0.538,5.262c0,0,7.574,5.261,28.508,5.261
		s28.63-4.956,28.63-4.956c0.34-1.354,0.053-3.917-0.816-4.955c0,0-12.814,3.617-27.848,3.617
		C154.42,193.316,141.521,189.087,141.521,189.087z"/>
	<path style="fill:#F9BB8D;" d="M166.066,114.86c0,0,14.034-11.871,13.145-12.625c-4.104-3.49-2.952-12.529-2.952-12.529h-20.214
		c0,0,1.875,10.957-3.251,13.438C152.363,103.354,166.066,114.86,166.066,114.86z"/>
	<path style="fill:#F9BB8D;" d="M190.188,70.272c-1.03,7.681-1.794,11.774-5.783,17.546c-6.645,9.625-15.096,12.844-18.41,12.844
		c-3.387,0-12.547-2.821-19.379-12.844c-3.871-5.678-4.514-10.578-5.563-17.546c-1.263-8.372-1.361-5.417-1.361-13.319
		c0-16.09,6.209-27.71,24.248-27.71c18.055,0,27.262,10.112,27.537,26.629C191.627,64.921,191.315,61.854,190.188,70.272z"/>
	<path style="fill:#E7DCD6;" d="M143.925,58.213c2.421-2.521,8.395-2.414,11.785-2.517c3.194-0.096,10.88-0.031,13.235-2.777
		c2.088-2.434,5.916-5.98,9.368-5.98c7.993,0,9.33,11.91,10.591,18.336c0.34,1.726,0.779,3.486,1.247,5.268
		c0.01-0.091,0.022-0.178,0.036-0.27c1.128-8.418,1.439-5.351,1.289-14.401c-0.275-16.516-8.973-27.728-27.025-27.728
		c-18.037,0-24.76,12.719-24.76,28.81c0,7.536,0.092,5.221,1.196,12.25C142.428,65.942,141.063,61.192,143.925,58.213z"/>
	<path style="fill:#432918;" d="M141.373,72.385c0.896,5.878,0.979,10.111,4.444,15.194c6.833,10.022,16.79,13.083,20.177,13.083
		c3.314,0,12.628-3.184,19.273-12.809c3.604-5.218,3.713-9.107,4.627-15.469l-7.373,12.082c0,0-5.168,6.641-11.792,9.098
		c-1.425,0.528-3.691-4.52-5.128-4.52c-1.809,0-3.63,5.167-5.459,4.377c-6.377-2.759-12.129-8.954-12.129-8.954L141.373,72.385z"/>
	<path style="fill:#432918;" d="M141.24,55.726c5.979-4.516,27.217,1.464,34.904-11.838c9.17,0.117,11.106,9.153,12.57,12.448
		c1.467,3.295,1.434,14.222,1.473,13.936c1.128-8.418,2.463-5.129,2.311-14.181c-0.274-16.515-9.995-27.948-28.048-27.948
		c-18.037,0-25.654,12.712-25.654,28.803c0,7.902,0.993,4.954,2.256,13.326C141.096,70.559,139.031,57.393,141.24,55.726z"/>
	<path style="fill:#EDEDED;" d="M210.295,170.448l1.365,38.996h11.229c0,0,4.148-31.185,2.93-41.193
		c-1.223-10.008-9.742-54.267-21.481-57.784c-12.439-3.727,0.442,34.597,0.442,34.597L210.295,170.448z"/>
	<path style="fill:#EDEDED;" d="M215.768,180.788c0.76-8.996,1.261-16.962-1.499-25.807c-2.829-9.061-6.14-14.719-12.569-20.493
		c1.514,5.911,3.08,10.575,3.08,10.575l5.516,25.385l1.365,38.996h10.235C215.452,202.402,214.938,190.619,215.768,180.788z"/>
	<g>
		<path style="fill:#F9BB8D;" d="M120.711,206.26c4.92,1.903,2.473,2.955,1.771,11.345c-0.947,11.342,5.625,17.28,0.415,16.45
			c-3.904-0.622-9.36-9.723-9.368-15.095c-0.004-2.58,1.23-5.333,2.188-7.838c2.02-5.275-0.145-9.569-0.145-9.569
			S120.016,205.988,120.711,206.26z"/>
		<path style="fill:#F9BB8D;" d="M122.738,207.277c2.787,1.082,1.682,3.882,1.557,7.394c-0.226,6.449,2.352,9.265-0.643,9.313
			c-2.213,0.037-4.418-6.766-4.424-9.814C119.225,210.796,121.52,206.807,122.738,207.277z"/>
		<path style="fill:#DFA076;" d="M119.576,214.17c-0.003-2.859-0.604,2.342-0.221,3.741c0.812,2.967,2.313,6.097,3.815,6.073
			c0.191-0.002,0.362-0.022,0.513-0.053C121.583,223.358,119.582,217.071,119.576,214.17z"/>
	</g>
	<path style="fill:#EDEDED;" d="M127.042,170.448l-1.366,38.996h-11.229c0,0-4.149-31.185-2.93-41.193
		c1.221-10.008,9.74-54.267,21.479-57.784c12.441-3.727-0.442,34.597-0.442,34.597L127.042,170.448z"/>
	<path style="fill:#EDEDED;" d="M121.568,180.788c-0.758-8.996-1.26-16.962,1.5-25.807c2.826-9.061,6.139-14.719,12.566-20.493
		c-1.514,5.911-3.08,10.575-3.08,10.575l-5.513,25.385l-1.366,38.996h-10.234C121.885,202.402,122.397,190.619,121.568,180.788z"/>
	<path style="fill:#DADADA;" d="M182.125,115.527c-4.408-6.757-12.634-3.657-12.634-3.657s8.478-7.961,9.721-9.635
		c1.245-1.674,9.749-1.573,11.856,2.22C192.14,106.382,184.3,112.58,182.125,115.527z"/>
	<path style="fill:#DADADA;" d="M150.715,116.011c4.408-6.758,12.633-3.657,12.633-3.657s-8.479-7.961-9.722-9.636
		c-1.243-1.674-9.747-1.572-11.855,2.221C140.7,106.866,148.539,113.063,150.715,116.011z"/>
	<path style="fill:#B55A3A;" d="M170.162,121.691h-6.648c0,0-3.808-7.296-2.563-8.971c1.243-1.674,9.518-1.648,10.983,0
		C173.4,114.368,170.162,121.691,170.162,121.691z"/>
	<path style="fill:#E7DCD6;" d="M165.773,111.487c-2.195,0.059-4.25,0.464-4.822,1.233c-1.245,1.674,2.563,8.971,2.563,8.971h6.648
		c0,0,0.115-0.259,0.291-0.69C166.182,119.872,164.623,115.206,165.773,111.487z"/>
	<polygon style="fill:#D15D36;" points="170.162,121.691 163.514,121.691 158.692,174.679 166.36,184.238 174.558,174.679 	"/>
	<path style="fill:#E7DCD6;" d="M164.289,160.081c0.395-5.301,1.273-10.53,2.039-15.786c1.096-7.514,0.514-15.039,2.146-22.538
		c0.003-0.023,0.013-0.044,0.02-0.067h-4.98l-4.821,52.988l7.668,9.559l4.072-4.75C165.158,175.421,163.762,167.189,164.289,160.081
		z"/>
	<g>
		<g>
			<path style="fill:#FEC700;" d="M173.143,191.438h-5.855c-1.178,0-2.131,0.954-2.131,2.129v5.855c0,1.176,0.953,2.13,2.131,2.13
				h5.855c1.178,0,2.131-0.954,2.131-2.13v-5.855C175.273,192.392,174.32,191.438,173.143,191.438z M173.309,198.287
				c0,0.72-0.584,1.303-1.303,1.303h-3.581c-0.72,0-1.303-0.583-1.303-1.303v-3.583c0-0.72,0.583-1.302,1.303-1.302h3.581
				c0.719,0,1.303,0.583,1.303,1.302V198.287z"/>
			<g>
				<path style="fill:#DCD2CA;" d="M173.216,198.77c0.548-0.154,0.95-0.651,0.95-1.247v-3.582c0-0.721-0.586-1.303-1.303-1.303
					h-3.584c-0.548,0-1.016,0.339-1.207,0.819c0.111-0.031,0.229-0.054,0.353-0.054h3.581c0.719,0,1.303,0.583,1.303,1.302v3.583
					C173.309,198.458,173.275,198.621,173.216,198.77z"/>
				<path style="fill:#DCD2CA;" d="M173.999,200.788h-5.858c-1.174,0-2.127-0.952-2.127-2.129v-5.857
					c0-0.419,0.126-0.806,0.334-1.136c-0.703,0.348-1.191,1.066-1.191,1.903v5.855c0,1.176,0.953,2.13,2.131,2.13h5.855
					c0.758,0,1.418-0.397,1.795-0.992C174.653,200.702,174.338,200.788,173.999,200.788z"/>
			</g>
		</g>
		<path style="fill:#FEC700;" d="M168.699,196.559c0,0.473-0.382,0.855-0.855,0.855h-3.412c-0.475,0-0.857-0.382-0.857-0.855l0,0
			c0-0.472,0.383-0.855,0.857-0.855h3.412C168.317,195.704,168.699,196.086,168.699,196.559L168.699,196.559z"/>
		<path style="fill:#DCD2CA;" d="M163.666,196.93c0.143,0.285,0.426,0.484,0.766,0.484h3.412c0.338,0,0.623-0.199,0.764-0.484
			H163.666z"/>
	</g>
	<g>
		<path style="fill:#FFFFFF;" d="M183.49,66.501c0,0-0.234,1.343-1.443,2.488c-0.912,0.86-6.472,1.44-7.059,1.177
			c-0.879-0.393-2.02-2.271-2.02-2.271s1.959-2.69,4.375-2.69C179.754,65.205,183.49,66.501,183.49,66.501z"/>
		<path style="fill:#432918;" d="M177.344,65.733c1.743,0,4.174,0.676,5.387,1.051c0.279,0.085,0.137,1.039-0.328,1.83
			c0.992-0.913,1.088-2.113,1.088-2.113s-3.736-1.296-6.146-1.296c-2.416,0-4.375,2.69-4.375,2.69s0.078,0.266,0.283,0.433
			C173.681,67.788,175.25,65.733,177.344,65.733z"/>
		<path style="fill:#432918;" d="M180.008,67.653c0,1.355-1.098,2.451-2.449,2.451c-1.352,0-2.45-1.095-2.45-2.451
			c0-1.352,1.099-2.447,2.45-2.447C178.91,65.205,180.008,66.301,180.008,67.653z"/>
		<path style="fill:#FFFFFF;" d="M179.658,67.656c0,1.038-2.912-1.875-1.879-1.875C178.818,65.781,179.658,66.621,179.658,67.656z"
			/>
	</g>
	<path style="fill:#432918;" d="M145.465,62.422c0,0,1.315-0.886,4.248-1.842c3.195-1.042,7.563,0.555,7.734,0.555
		c0.299,0,0.738-0.083,0.738-0.904c0-0.821-0.24-1.488-0.54-1.488c-0.167,0-4.495-1.075-7.739-0.063
		C147.42,59.453,145.465,62.422,145.465,62.422z"/>
	<path style="fill:#432918;" d="M185.689,62.422c0,0-1.313-0.886-4.246-1.842c-3.195-1.042-7.564,0.555-7.736,0.555
		c-0.297,0-0.738-0.083-0.738-0.904c0-0.821,0.244-1.488,0.541-1.488c0.168,0,4.497-1.075,7.742-0.063
		C183.734,59.453,185.689,62.422,185.689,62.422z"/>
	<g>
		<path style="fill:#FFFFFF;" d="M147.664,66.501c0,0,0.237,1.343,1.444,2.488c0.913,0.86,6.473,1.44,7.059,1.177
			c0.875-0.393,2.018-2.271,2.018-2.271s-1.958-2.69-4.371-2.69C151.4,65.205,147.664,66.501,147.664,66.501z"/>
		<path style="fill:#432918;" d="M153.814,65.733c-1.745,0-4.176,0.676-5.389,1.051c-0.28,0.085-0.135,1.039,0.33,1.83
			c-0.994-0.913-1.092-2.113-1.092-2.113s3.736-1.296,6.15-1.296c2.413,0,4.371,2.69,4.371,2.69s-0.078,0.266-0.283,0.433
			C157.475,67.788,155.906,65.733,153.814,65.733z"/>
		<path style="fill:#432918;" d="M151.146,67.653c0,1.355,1.098,2.451,2.449,2.451c1.354,0,2.45-1.095,2.45-2.451
			c0-1.352-1.097-2.447-2.45-2.447C152.244,65.205,151.146,66.301,151.146,67.653z"/>
		<path style="fill:#FFFFFF;" d="M151.499,67.656c0,1.038,2.911-1.875,1.876-1.875C152.34,65.781,151.499,66.621,151.499,67.656z"/>
	</g>
	<polygon style="fill:#E09D72;" points="164.697,77.545 162.499,75.806 164.697,70.68 	"/>
	<polygon style="fill:#E09D72;" points="158.743,84.819 157.921,84.019 172.703,83.22 170.051,84.819 	"/>
</g>
</svg>
